<svg width="48" height="48" viewBox="0 0 48 48" fill="none" xmlns="http://www.w3.org/2000/svg">
<path d="M28.2269 23.9974L47.1132 5.1391C47.6777 4.57454 47.9949 3.80883 47.9949 3.01041C47.9949 2.212 47.6777 1.44629 47.1132 0.88173C46.5487 0.317168 45.7831 0 44.9848 0C44.1865 0 43.4208 0.317168 42.8563 0.88173L24 19.7701L5.14367 0.88173C4.57917 0.317168 3.81354 7.08865e-07 3.01521 7.14814e-07C2.21688 7.20763e-07 1.45125 0.317168 0.886752 0.88173C0.32225 1.44629 0.00511681 2.212 0.00511681 3.01041C0.0051168 3.80883 0.32225 4.57454 0.886752 5.1391L19.7731 23.9974L0.886752 42.8558C0.605771 43.1345 0.38275 43.4661 0.230554 43.8315C0.0783587 44.1968 0 44.5887 0 44.9845C0 45.3803 0.0783587 45.7721 0.230554 46.1375C0.38275 46.5028 0.605771 46.8344 0.886752 47.1131C1.16544 47.3942 1.497 47.6172 1.86231 47.7694C2.22763 47.9216 2.61946 48 3.01521 48C3.41096 48 3.80279 47.9216 4.1681 47.7694C4.53342 47.6172 4.86498 47.3942 5.14367 47.1131L24 28.2248L42.8563 47.1131C43.135 47.3942 43.4666 47.6172 43.8319 47.7694C44.1972 47.9216 44.589 48 44.9848 48C45.3805 48 45.7724 47.9216 46.1377 47.7694C46.503 47.6172 46.8346 47.3942 47.1132 47.1131C47.3942 46.8344 47.6173 46.5028 47.7694 46.1375C47.9216 45.7721 48 45.3803 48 44.9845C48 44.5887 47.9216 44.1968 47.7694 43.8315C47.6173 43.4661 47.3942 43.1345 47.1132 42.8558L28.2269 23.9974Z" fill="black"/>
</svg>
