<svg width="228" height="86" viewBox="0 0 228 86" fill="none" xmlns="http://www.w3.org/2000/svg">
<path d="M0.5 85.5L0.5 68.6977L222.5 68.6977L222.5 85.5L0.5 85.5Z" fill="#175073"/>
<path d="M195 0.500002C212.949 0.500003 227.5 14.8816 227.5 32.6221C227.5 50.3626 212.949 64.7442 195 64.7442C177.051 64.7442 162.5 50.3626 162.5 32.6221C162.5 14.8816 177.051 0.500002 195 0.500002Z" fill="#E97934"/>
<path d="M14.806 46.2854C12.61 46.2854 10.54 45.9948 8.596 45.4136L8.596 17.2154L10.792 17.2154L10.792 28.8327L10.936 28.8327C11.644 28.0736 12.508 27.4806 13.528 27.0536C14.548 26.6266 15.676 26.4131 16.912 26.4131C18.448 26.4131 19.81 26.7393 20.998 27.3916C22.186 28.044 23.122 29.0817 23.806 30.505C24.49 31.9164 24.832 33.737 24.832 35.9667C24.832 39.4063 23.986 41.9859 22.294 43.7057C20.614 45.4255 18.118 46.2854 14.806 46.2854ZM14.95 44.4529C17.494 44.4529 19.396 43.7887 20.656 42.4603C21.928 41.1201 22.564 39.0267 22.564 36.1802C22.564 33.3693 22.012 31.359 20.908 30.1492C19.816 28.9394 18.31 28.3345 16.39 28.3345C15.286 28.3345 14.248 28.5421 13.276 28.9572C12.304 29.3723 11.476 30.0069 10.792 30.8608L10.792 43.9014C12.088 44.2691 13.474 44.4529 14.95 44.4529Z" fill="#175073"/>
<path d="M43.4125 26.6978L45.6445 26.6978L34.3945 53.793L32.1625 53.793L35.4205 45.9651L34.7725 45.9651L26.7805 26.6978L29.1385 26.6978L36.2125 44.2394L43.4125 26.6978Z" fill="#175073"/>
<path d="M57.1052 44.364C57.8252 44.364 58.7192 44.2513 59.7872 44.0259L59.7872 45.9473C58.7912 46.1727 57.7652 46.2854 56.7092 46.2854C54.6092 46.2854 53.0012 45.7635 51.8852 44.7198C50.7812 43.6642 50.2292 42.0393 50.2292 39.8451L50.2292 28.548L46.2512 28.548L46.2512 26.6978L50.2292 26.6978L50.5712 19.6349L52.4252 19.6349L52.4252 26.6978L59.4272 26.6978L59.4272 28.548L52.4252 28.548L52.4252 39.4893C52.4252 41.2209 52.8092 42.4663 53.5772 43.2254C54.3572 43.9844 55.5332 44.364 57.1052 44.364Z" fill="#175073"/>
<path d="M77.5653 37.1054L64.0113 37.1054C64.0953 39.6791 64.7433 41.5471 65.9553 42.7094C67.1793 43.8717 68.9853 44.4529 71.3733 44.4529C72.8853 44.4529 74.6253 44.1564 76.5933 43.5634L76.5933 45.4314C74.6733 46.0126 72.8553 46.3031 71.1393 46.3031C68.0553 46.3031 65.7213 45.4966 64.1373 43.8836C62.5533 42.2587 61.7613 39.7384 61.7613 36.3226C61.7613 33.0491 62.4633 30.5821 63.8673 28.9216C65.2832 27.2493 67.2633 26.4131 69.8073 26.4131C72.3153 26.4131 74.2353 27.2434 75.5673 28.9038C76.8993 30.5643 77.5653 33.0491 77.5653 36.3581L77.5653 37.1054ZM69.7893 28.1033C67.9533 28.1033 66.5433 28.6904 65.5593 29.8645C64.5873 31.0387 64.0713 32.9067 64.0113 35.4686L75.4233 35.4686C75.3753 32.9186 74.8773 31.0565 73.9293 29.8823C72.9813 28.6963 71.6013 28.1033 69.7893 28.1033Z" fill="#175073"/>
<path d="M89.8795 46.3031C84.0715 46.3031 81.1675 42.9822 81.1675 36.3404C81.1675 32.9483 81.9655 30.4457 83.5615 28.8327C85.1695 27.2197 87.5275 26.4131 90.6355 26.4131C92.1955 26.4131 93.6115 26.597 94.8835 26.9647L94.8835 28.8861C93.5275 28.5065 92.1715 28.3168 90.8155 28.3168C89.1475 28.3168 87.7735 28.5895 86.6935 29.1351C85.6135 29.6688 84.8035 30.5228 84.2635 31.697C83.7235 32.8593 83.4535 34.3834 83.4535 36.2692C83.4535 39.1276 84.0115 41.1972 85.1275 42.4781C86.2435 43.7472 87.9235 44.3817 90.1675 44.3817C91.5955 44.3817 93.1675 44.0852 94.8835 43.4922L94.8835 45.4136C93.2515 46.0066 91.5835 46.3031 89.8795 46.3031Z" fill="#175073"/>
<path d="M98.7718 26.6978L100.626 26.6978L100.806 29.2952L100.986 29.2952C101.718 28.4294 102.648 27.7534 103.776 27.2671C104.904 26.769 106.056 26.5199 107.232 26.5199C107.82 26.5199 108.42 26.5733 109.032 26.68L109.032 28.7437C108.504 28.6488 107.88 28.6014 107.16 28.6014C106.068 28.6014 104.946 28.8505 103.794 29.3486C102.642 29.8349 101.7 30.5406 100.968 31.4657L100.968 45.9651L98.7718 45.9651L98.7718 26.6978Z" fill="#175073"/>
<path d="M117.631 26.4131C119.299 26.4131 120.673 26.6266 121.753 27.0536C122.845 27.4687 123.673 28.1685 124.237 29.1529C124.801 30.1255 125.083 31.4479 125.083 33.1202L125.083 45.9651L123.211 45.9651L123.049 43.7057L122.869 43.7057C122.185 44.5004 121.291 45.129 120.187 45.5915C119.095 46.0422 117.931 46.2676 116.695 46.2676C115.435 46.2676 114.349 46.06 113.437 45.6449C112.525 45.2298 111.823 44.6368 111.331 43.8658C110.851 43.083 110.611 42.1579 110.611 41.0905C110.611 39.4419 111.175 38.1669 112.303 37.2655C113.431 36.3522 115.237 35.7651 117.721 35.5042L122.923 34.9171L122.923 33.0669C122.923 31.8215 122.719 30.849 122.311 30.1492C121.903 29.4494 121.297 28.9631 120.493 28.6904C119.701 28.4057 118.675 28.2634 117.415 28.2634C116.551 28.2634 115.633 28.3405 114.661 28.4947C113.689 28.637 112.741 28.8683 111.817 29.1885L111.817 27.3027C112.633 27.018 113.557 26.7986 114.589 26.6444C115.633 26.4902 116.647 26.4131 117.631 26.4131ZM117.109 44.4885C118.201 44.4885 119.245 44.275 120.241 43.848C121.249 43.4092 122.143 42.7509 122.923 41.8733L122.923 36.5361L117.829 37.1054C116.077 37.307 114.811 37.7162 114.031 38.3329C113.263 38.9378 112.879 39.7977 112.879 40.9126C112.879 42.063 113.233 42.9466 113.941 43.5634C114.649 44.1801 115.705 44.4885 117.109 44.4885Z" fill="#175073"/>
<path d="M139.578 18.7454C137.814 18.7454 136.518 19.1368 135.69 19.9195C134.862 20.7023 134.448 22.0011 134.448 23.8157L134.448 26.6978L141.45 26.6978L141.45 28.548L134.448 28.548L134.448 45.9651L132.252 45.9651L132.252 28.548L128.274 28.548L128.274 26.6978L132.252 26.6978L132.252 23.958C132.252 19.2257 134.652 16.8595 139.452 16.8595C140.34 16.8595 141.264 16.9366 142.224 17.0908L142.224 18.9944C141.312 18.8284 140.43 18.7454 139.578 18.7454Z" fill="#175073"/>
<path d="M151.675 44.364C152.395 44.364 153.289 44.2513 154.357 44.0259L154.357 45.9473C153.361 46.1727 152.335 46.2854 151.279 46.2854C149.179 46.2854 147.571 45.7635 146.455 44.7198C145.351 43.6642 144.799 42.0393 144.799 39.8451L144.799 28.548L140.821 28.548L140.821 26.6978L144.799 26.6978L145.141 19.6349L146.995 19.6349L146.995 26.6978L153.997 26.6978L153.997 28.548L146.995 28.548L146.995 39.4893C146.995 41.2209 147.379 42.4663 148.147 43.2254C148.927 43.9844 150.103 44.364 151.675 44.364Z" fill="#175073"/>
</svg>
