<svg width="86" height="227" viewBox="0 0 86 227" fill="none" xmlns="http://www.w3.org/2000/svg">
<path d="M0 0H17V222H0V0Z" fill="#175073"/>
<path d="M86 194.5C86 212.449 71.4493 227 53.5 227C35.5507 227 21 212.449 21 194.5C21 176.551 35.5507 162 53.5 162C71.4493 162 86 176.551 86 194.5Z" fill="#E97934"/>
<path d="M39.676 14.306C39.676 12.11 39.97 10.04 40.558 8.096L69.088 8.096V10.292H57.334V10.436C58.102 11.144 58.702 12.008 59.134 13.028C59.566 14.048 59.782 15.176 59.782 16.412C59.782 17.948 59.452 19.31 58.792 20.498C58.132 21.686 57.082 22.622 55.642 23.306C54.214 23.99 52.372 24.332 50.116 24.332C46.636 24.332 44.026 23.486 42.286 21.794C40.546 20.114 39.676 17.618 39.676 14.306ZM41.53 14.45C41.53 16.994 42.202 18.896 43.546 20.156C44.902 21.428 47.02 22.064 49.9 22.064C52.744 22.064 54.778 21.512 56.002 20.408C57.226 19.316 57.838 17.81 57.838 15.89C57.838 14.786 57.628 13.748 57.208 12.776C56.788 11.804 56.146 10.976 55.282 10.292L42.088 10.292C41.716 11.588 41.53 12.974 41.53 14.45Z" fill="#175073"/>
<path d="M59.494 42.9125V45.1445L32.08 33.8945V31.6625L40 34.9205V34.2725L59.494 26.2805V28.6385L41.746 35.7125L59.494 42.9125Z" fill="#175073"/>
<path d="M41.62 56.6052C41.62 57.3252 41.734 58.2192 41.962 59.2872H40.018C39.79 58.2912 39.676 57.2652 39.676 56.2092C39.676 54.1092 40.204 52.5012 41.26 51.3852C42.328 50.2812 43.972 49.7292 46.192 49.7292H57.622V45.7512H59.494V49.7292L66.64 50.0712V51.9252H59.494V58.9272H57.622V51.9252H46.552C44.8 51.9252 43.54 52.3092 42.772 53.0772C42.004 53.8572 41.62 55.0332 41.62 56.6052Z" fill="#175073"/>
<path d="M48.964 77.0653V63.5113C46.36 63.5953 44.47 64.2433 43.294 65.4553C42.118 66.6793 41.53 68.4853 41.53 70.8733C41.53 72.3853 41.83 74.1253 42.43 76.0933H40.54C39.952 74.1733 39.658 72.3553 39.658 70.6393C39.658 67.5553 40.474 65.2213 42.106 63.6373C43.75 62.0533 46.3 61.2613 49.756 61.2613C53.068 61.2613 55.564 61.9633 57.244 63.3673C58.936 64.7833 59.782 66.7633 59.782 69.3073C59.782 71.8153 58.942 73.7353 57.262 75.0673C55.582 76.3993 53.068 77.0653 49.72 77.0653H48.964ZM58.072 69.2893C58.072 67.4533 57.478 66.0433 56.29 65.0592C55.102 64.0872 53.212 63.5713 50.62 63.5113V74.9233C53.2 74.8753 55.084 74.3773 56.272 73.4293C57.472 72.4813 58.072 71.1013 58.072 69.2893Z" fill="#175073"/>
<path d="M39.658 89.3795C39.658 83.5715 43.018 80.6675 49.738 80.6675C53.17 80.6675 55.702 81.4655 57.334 83.0615C58.966 84.6695 59.782 87.0275 59.782 90.1355C59.782 91.6955 59.596 93.1115 59.224 94.3835H57.28C57.664 93.0275 57.856 91.6715 57.856 90.3155C57.856 88.6475 57.58 87.2735 57.028 86.1935C56.488 85.1135 55.624 84.3035 54.436 83.7635C53.26 83.2235 51.718 82.9535 49.81 82.9535C46.918 82.9535 44.824 83.5115 43.528 84.6275C42.244 85.7435 41.602 87.4235 41.602 89.6675C41.602 91.0955 41.902 92.6675 42.502 94.3835H40.558C39.958 92.7515 39.658 91.0835 39.658 89.3795Z" fill="#175073"/>
<path d="M59.494 98.2718V100.126L56.866 100.306V100.486C57.742 101.218 58.426 102.148 58.918 103.276C59.422 104.404 59.674 105.556 59.674 106.732C59.674 107.32 59.62 107.92 59.512 108.532H57.424C57.52 108.004 57.568 107.38 57.568 106.66C57.568 105.568 57.316 104.446 56.812 103.294C56.32 102.142 55.606 101.2 54.67 100.468H40V98.2718H59.494Z" fill="#175073"/>
<path d="M59.782 117.131C59.782 118.799 59.566 120.173 59.134 121.253C58.714 122.345 58.006 123.173 57.01 123.737C56.026 124.301 54.688 124.583 52.996 124.583H40V122.711L42.286 122.549V122.369C41.482 121.685 40.846 120.791 40.378 119.687C39.922 118.595 39.694 117.431 39.694 116.195C39.694 114.935 39.904 113.849 40.324 112.937C40.744 112.025 41.344 111.323 42.124 110.831C42.916 110.351 43.852 110.111 44.932 110.111C46.6 110.111 47.89 110.675 48.802 111.803C49.726 112.931 50.32 114.737 50.584 117.221L51.178 122.423H53.05C54.31 122.423 55.294 122.219 56.002 121.811C56.71 121.403 57.202 120.797 57.478 119.993C57.766 119.201 57.91 118.175 57.91 116.915C57.91 116.051 57.832 115.133 57.676 114.161C57.532 113.189 57.298 112.241 56.974 111.317H58.882C59.17 112.133 59.392 113.057 59.548 114.089C59.704 115.133 59.782 116.147 59.782 117.131ZM41.494 116.609C41.494 117.701 41.71 118.745 42.142 119.741C42.586 120.749 43.252 121.643 44.14 122.423H49.54L48.964 117.329C48.76 115.577 48.346 114.311 47.722 113.531C47.11 112.763 46.24 112.379 45.112 112.379C43.948 112.379 43.054 112.733 42.43 113.441C41.806 114.149 41.494 115.205 41.494 116.609Z" fill="#175073"/>
<path d="M67.54 139.078C67.54 137.314 67.144 136.018 66.352 135.19C65.56 134.362 64.246 133.948 62.41 133.948H59.494V140.95L57.622 140.95V133.948H40V131.752H57.622V127.774H59.494V131.752H62.266C67.054 131.752 69.448 134.152 69.448 138.952C69.448 139.84 69.37 140.764 69.214 141.724H67.288C67.456 140.812 67.54 139.93 67.54 139.078Z" fill="#175073"/>
<path d="M41.62 151.175C41.62 151.895 41.734 152.789 41.962 153.857H40.018C39.79 152.861 39.676 151.835 39.676 150.779C39.676 148.679 40.204 147.071 41.26 145.955C42.328 144.851 43.972 144.299 46.192 144.299H57.622V140.321H59.494V144.299L66.64 144.641V146.495H59.494V153.497H57.622V146.495H46.552C44.8 146.495 43.54 146.879 42.772 147.647C42.004 148.427 41.62 149.603 41.62 151.175Z" fill="#175073"/>
</svg>
