<svg width="79" height="48" viewBox="0 0 79 48" fill="none" xmlns="http://www.w3.org/2000/svg">
<path d="M3.04273 0.000300022C2.64519 -0.00532212 2.2505 0.0681218 1.8816 0.216363C1.51269 0.364604 1.17693 0.584686 0.893821 0.86382C0.610712 1.14295 0.385904 1.47557 0.232461 1.84234C0.0790175 2.20911 0 2.60272 0 3.0003C0 3.39788 0.0790175 3.79149 0.232461 4.15826C0.385904 4.52503 0.610712 4.85765 0.893821 5.13678C1.17693 5.41591 1.51269 5.636 1.8816 5.78424C2.2505 5.93248 2.64519 6.00592 3.04273 6.0003H75.0427C75.4403 6.00592 75.8349 5.93248 76.2038 5.78424C76.5728 5.636 76.9085 5.41591 77.1916 5.13678C77.4747 4.85765 77.6995 4.52503 77.853 4.15826C78.0064 3.79149 78.0854 3.39788 78.0854 3.0003C78.0854 2.60272 78.0064 2.20911 77.853 1.84234C77.6995 1.47557 77.4747 1.14295 77.1916 0.86382C76.9085 0.584686 76.5728 0.364604 76.2038 0.216363C75.8349 0.0681218 75.4403 -0.00532212 75.0427 0.000300022H3.04273ZM3.04273 21.0003C2.64519 20.9947 2.2505 21.0681 1.8816 21.2164C1.51269 21.3646 1.17693 21.5847 0.893821 21.8638C0.610712 22.143 0.385904 22.4756 0.232461 22.8423C0.0790175 23.2091 0 23.6027 0 24.0003C0 24.3979 0.0790175 24.7915 0.232461 25.1583C0.385904 25.525 0.610712 25.8576 0.893821 26.1368C1.17693 26.4159 1.51269 26.636 1.8816 26.7842C2.2505 26.9325 2.64519 27.0059 3.04273 27.0003H75.0427C75.4403 27.0059 75.8349 26.9325 76.2038 26.7842C76.5728 26.636 76.9085 26.4159 77.1916 26.1368C77.4747 25.8576 77.6995 25.525 77.853 25.1583C78.0064 24.7915 78.0854 24.3979 78.0854 24.0003C78.0854 23.6027 78.0064 23.2091 77.853 22.8423C77.6995 22.4756 77.4747 22.143 77.1916 21.8638C76.9085 21.5847 76.5728 21.3646 76.2038 21.2164C75.8349 21.0681 75.4403 20.9947 75.0427 21.0003H3.04273ZM3.04273 42.0003C2.64519 41.9947 2.2505 42.0681 1.8816 42.2164C1.51269 42.3646 1.17693 42.5847 0.893821 42.8638C0.610712 43.143 0.385904 43.4756 0.232461 43.8423C0.0790175 44.2091 0 44.6027 0 45.0003C0 45.3979 0.0790175 45.7915 0.232461 46.1583C0.385904 46.525 0.610712 46.8577 0.893821 47.1368C1.17693 47.4159 1.51269 47.636 1.8816 47.7842C2.2505 47.9325 2.64519 48.0059 3.04273 48.0003H75.0427C75.4403 48.0059 75.8349 47.9325 76.2038 47.7842C76.5728 47.636 76.9085 47.4159 77.1916 47.1368C77.4747 46.8577 77.6995 46.525 77.853 46.1583C78.0064 45.7915 78.0854 45.3979 78.0854 45.0003C78.0854 44.6027 78.0064 44.2091 77.853 43.8423C77.6995 43.4756 77.4747 43.143 77.1916 42.8638C76.9085 42.5847 76.5728 42.3646 76.2038 42.2164C75.8349 42.0681 75.4403 41.9947 75.0427 42.0003H3.04273Z" fill="black"/>
</svg>
