<svg width="143" height="176" viewBox="0 0 143 176" fill="none" xmlns="http://www.w3.org/2000/svg">
<path d="M20.04 14C20.0134 18.4533 18.7734 21.9067 16.3201 24.36C13.8934 26.7867 10.5334 28 6.24005 28H0.800049V0H6.24005C10.5334 0 13.8934 1.22667 16.3201 3.68C18.7734 6.10667 20.0134 9.54667 20.04 14ZM6.72005 24.48C9.68005 24.48 11.9467 23.5067 13.52 21.56C15.12 19.5867 15.9467 17.0667 16 14C15.9467 10.9333 15.12 8.42667 13.52 6.48C11.9467 4.50667 9.68005 3.52 6.72005 3.52H4.56005V24.48H6.72005Z" fill="black"/>
<path d="M40.9732 28H25.0532V6.68C25.0532 4.70667 25.6798 3.12 26.9332 1.92C27.7865 1.12 28.7465 0.6 29.8132 0.36C30.8798 0.12 32.1865 0 33.7332 0H40.9732V3.52H33.2132C30.2798 3.52 28.8132 4.74667 28.8132 7.2V11.76H38.0532V15.28H28.8132V24.48H40.9732V28Z" fill="black"/>
<path d="M59.6857 0V3.52H52.6057C49.9123 3.52 48.5657 4.61333 48.5657 6.8C48.5657 7.97333 49.1523 8.97333 50.3257 9.8C51.5257 10.6 53.139 11.3733 55.1657 12.12C56.0723 12.4667 56.8457 12.8267 57.4857 13.2C58.1257 13.5467 58.7657 14.0133 59.4057 14.6C60.0457 15.1867 60.5257 15.9467 60.8457 16.88C61.1657 17.7867 61.3257 18.84 61.3257 20.04C61.3257 21.3733 61.0457 22.5733 60.4857 23.64C59.9257 24.68 59.2057 25.5067 58.3257 26.12C57.4457 26.7067 56.539 27.16 55.6057 27.48C54.699 27.7733 53.8057 27.9333 52.9257 27.96C52.5523 27.9867 52.019 28 51.3257 28H45.0857V24.48H51.2057C53.019 24.48 54.499 24.1067 55.6457 23.36C56.7923 22.5867 57.3657 21.4667 57.3657 20C57.3657 19.28 57.2057 18.6533 56.8857 18.12C56.5657 17.56 56.099 17.08 55.4857 16.68C54.899 16.28 54.2857 15.9333 53.6457 15.64C53.0323 15.3467 52.2857 15.04 51.4057 14.72C51.1657 14.64 50.979 14.5733 50.8457 14.52C46.659 12.92 44.5657 10.3067 44.5657 6.68C44.5657 4.44 45.2857 2.77333 46.7257 1.68C48.1657 0.56 50.0457 0 52.3657 0H59.6857Z" fill="black"/>
<path d="M69.4819 28H65.7219V0H69.4819V28Z" fill="black"/>
<path d="M88.0169 24.48H90.8969V16.08H86.7769V12.56H94.6569V28H88.4969C84.2036 28 80.8303 26.7867 78.3769 24.36C75.9503 21.9067 74.7236 18.4533 74.6969 14C74.7236 9.54667 75.9503 6.10667 78.3769 3.68C80.8303 1.22667 84.2036 0 88.4969 0H93.0969V3.52H88.0169C85.0569 3.52 82.7769 4.50667 81.1769 6.48C79.6036 8.42667 78.7903 10.9333 78.7369 14C78.7903 17.0667 79.6036 19.5867 81.1769 21.56C82.7769 23.5067 85.0569 24.48 88.0169 24.48Z" fill="black"/>
<path d="M103.427 28H99.6672V0H109.547C112.854 0 115.321 0.746667 116.947 2.24C118.574 3.70667 119.387 6.02667 119.387 9.2V28H115.627V8.68C115.627 6.86667 115.067 5.56 113.947 4.76C112.854 3.93333 111.401 3.52 109.587 3.52H103.427V28Z" fill="black"/>
<path d="M2.00005 175.026C2.16202 175.027 2.32412 175.027 2.48634 175.027C41.43 175.027 73 143.457 73 104.514C73 65.5701 41.43 34 2.48634 34C2.32411 34 2.16202 34.0006 2.00005 34.0017L2.00005 175.026Z" fill="#9BA6DE"/>
<path d="M32.5536 163.964H110.161C113.773 163.964 116.714 161.018 116.714 157.393V148.92C117.843 148.829 118.741 148.968 119.616 149.254C127.032 151.705 135.789 148.541 139.47 139.938C145.95 125.034 140.902 107.575 127.464 98.4268C124.132 96.1607 120.493 94.5357 116.713 93.5589V53.5536C116.713 49.9411 113.773 47 110.159 47H54.3197C52.1786 47 50.1179 47.8768 48.6643 49.2446L28.4929 68.4C26.925 69.9321 26 72.1339 26 74.3214V157.393C26 161.018 28.9411 163.964 32.5536 163.964ZM125.961 100.643C138.336 109.068 142.984 125.146 137.013 138.879C133.891 146.155 126.609 148.741 120.459 146.713C116.646 145.441 112.138 146.621 109.443 149.907C105.138 155.177 97.6393 157.023 91.1143 152.704C78.6304 144.6 73.5608 128.152 79.3215 114.446C83.0108 105.68 90.3179 99.1179 99.3679 96.4429C108.571 93.7232 118.243 95.3929 125.961 100.643ZM30.3554 70.3339L50.5072 51.1946C50.5251 51.1768 50.5483 51.1661 50.5661 51.15C50.8215 50.9161 51.1054 50.7339 51.3911 50.5554V68.2464C51.3911 69.8268 50.1126 71.1107 48.5429 71.1107H29.7411C29.8679 70.9321 30.1518 70.5304 30.3554 70.3339ZM28.6786 74.3232C28.6786 74.1411 28.6983 73.9661 28.7161 73.7893H48.5429C51.5911 73.7893 54.0697 71.3018 54.0697 68.2464V49.7107C54.1518 49.7071 54.2411 49.6786 54.3215 49.6786H110.161C112.296 49.6786 114.036 51.4179 114.036 53.5536V92.9839C108.954 92.1018 103.688 92.3714 98.6054 93.875C88.784 96.7786 80.8536 103.898 76.8501 113.407C70.5965 128.291 76.1 146.15 89.6411 154.941C96.959 159.836 105.9 158.339 111.598 151.5C112.268 150.702 113.105 150.073 114.034 149.629V157.393C114.034 159.539 112.295 161.286 110.159 161.286H32.5536C30.4179 161.286 28.6786 159.539 28.6786 157.393V74.3232Z" fill="black"/>
<path d="M98.9233 136.439C95.2875 134.455 90.0179 133.934 88.1215 137.404C86.5108 140.354 88.7215 144.564 93.1554 146.989C96.8286 148.996 102.075 149.468 103.943 146.052C105.855 142.559 102.511 138.4 98.9233 136.439ZM101.595 144.766C100.841 146.143 97.7215 146.434 94.4411 144.639C91.1643 142.848 89.7197 140.064 90.4715 138.688C90.834 138.025 91.7268 137.611 92.9233 137.554C94.3411 137.477 96.0733 137.936 97.6393 138.789C99.2018 139.645 100.509 140.846 101.225 142.091C101.821 143.129 101.957 144.104 101.595 144.766ZM123.62 123.941C121.921 127.046 123.048 130.957 126.179 132.668C129.28 134.363 133.196 133.236 134.905 130.107C136.611 126.991 135.47 123.088 132.346 121.38C129.22 119.67 125.325 120.818 123.62 123.941ZM131.063 123.732C132.85 124.707 133.566 126.971 132.555 128.823C131.564 130.637 129.282 131.316 127.463 130.318C125.655 129.33 124.97 127.057 125.971 125.225C126.961 123.412 129.223 122.723 131.063 123.732ZM111.782 118.811C108.671 117.109 104.755 118.257 103.055 121.371C101.352 124.489 102.491 128.391 105.614 130.098C108.755 131.814 112.654 130.632 114.343 127.539C116.057 124.398 114.882 120.504 111.782 118.811ZM111.989 126.255C111.002 128.061 108.729 128.745 106.896 127.746C105.075 126.752 104.411 124.477 105.405 122.654C106.398 120.838 108.688 120.17 110.498 121.161C112.313 122.152 112.989 124.425 111.989 126.255ZM120.755 117.125C123.877 118.83 127.784 117.679 129.484 114.566C131.184 111.457 130.038 107.539 126.925 105.838C123.814 104.138 119.896 105.284 118.198 108.398C116.514 111.475 117.598 115.398 120.755 117.125ZM120.548 109.682C121.546 107.857 123.839 107.202 125.641 108.189C127.457 109.182 128.127 111.468 127.134 113.284C126.146 115.089 123.871 115.773 122.041 114.775C120.22 113.779 119.552 111.504 120.548 109.682ZM103.255 102.693C101.571 105.771 102.655 109.693 105.814 111.42C108.945 113.13 112.846 111.966 114.543 108.861C116.246 105.743 115.109 101.839 111.984 100.132C108.87 98.4304 104.955 99.5786 103.255 102.693ZM105.605 103.975C106.591 102.173 108.866 101.486 110.698 102.482C112.514 103.473 113.188 105.75 112.189 107.577C111.202 109.382 108.927 110.066 107.096 109.068C105.277 108.071 104.609 105.798 105.605 103.975ZM90.4608 116.259C93.5679 117.957 97.4822 116.823 99.1875 113.698C100.893 110.58 99.75 106.679 96.6286 104.971C93.4858 103.254 89.6 104.421 87.9 107.53C86.2018 110.643 87.3483 114.557 90.4608 116.259ZM90.2518 108.816C90.9429 107.55 92.234 106.857 93.5429 106.857C94.1643 106.857 94.7822 107.014 95.3447 107.323C97.1661 108.316 97.8322 110.598 96.8358 112.414C95.8429 114.229 93.559 114.905 91.7429 113.909C89.9286 112.916 89.259 110.63 90.2518 108.816ZM93.275 128.421C94.959 125.338 93.8715 121.418 90.7143 119.693C87.6018 117.989 83.6858 119.139 81.9875 122.254C80.284 125.371 81.4233 129.273 84.5465 130.98C87.6768 132.689 91.5786 131.525 93.275 128.421ZM84.3375 123.536C85.3304 121.72 87.6197 121.052 89.4304 122.043C91.2429 123.032 91.9233 125.307 90.9233 127.137C89.934 128.946 87.6554 129.625 85.8304 128.629C84.009 127.632 83.3429 125.359 84.3375 123.536ZM40.7304 130.671C41.0518 130.875 41.3822 131.021 41.709 131.204C40.6929 132.454 40.3536 134.304 41.0161 135.948C41.7233 137.698 43.4322 139.089 45.5858 139.664C47.3661 140.141 49.2054 140.054 50.8358 139.977L58.1179 139.63C59.6286 139.559 61.1911 139.484 62.5625 139.905C63.7608 140.273 64.8715 141.225 65.4608 142.387C65.9197 143.295 66.0179 144.243 65.7322 145.061C65.3483 146.164 64.2733 147.15 62.8554 147.695C61.4393 148.239 59.8304 148.363 58.1679 148.45C55.2322 148.604 52.2715 148.661 49.3661 148.623C47.5911 148.6 45.8929 148.513 44.625 147.709C44.0018 147.313 43.1733 147.498 42.7768 148.123C42.3804 148.748 42.5661 149.575 43.1911 149.971C45.0483 151.148 47.2429 151.273 49.3304 151.3C49.9143 151.307 50.4983 151.311 51.0858 151.311C53.4804 151.311 55.9018 151.248 58.3072 151.125C60.1929 151.025 62.034 150.88 63.8161 150.195C65.9929 149.357 67.6125 147.807 68.2625 145.939C68.7875 144.429 68.6411 142.738 67.85 141.177C66.9304 139.361 65.2483 137.929 63.35 137.345C61.5322 136.784 59.6536 136.87 57.9911 136.954L50.709 137.3C49.2072 137.368 47.6536 137.445 46.2786 137.075C44.9322 136.716 43.8947 135.92 43.5018 134.946C43.1375 134.043 43.5018 132.841 44.2393 132.521C44.2768 132.505 44.3018 132.473 44.3375 132.454C46.4768 133.289 48.6393 133.757 50.7304 133.757C51.4679 133.757 52.1965 133.705 52.9108 133.6C55.0554 133.286 57.0733 132.5 58.8465 131.241C62.8411 128.4 64.9536 123.595 63.6072 117.402C63.4858 116.873 63.2572 116.384 62.9465 115.952C67.5108 112.164 71.8143 108.125 76.8911 100.52C80.8054 94.6554 82.7393 90.4607 82.9786 87.3214C83.2393 83.8607 81.3215 82.1607 79.8572 81.1821C75.1411 78.0357 70.8947 80.7768 63.6268 91.6643C58.459 99.4036 56.15 104.771 54.3322 110.595C50.7054 110.516 48.0143 111.42 46.2875 113.379C44.0161 115.954 44.1679 119.441 44.4643 121.304C44.559 121.852 44.6715 122.336 44.7822 122.704C45.2625 124.32 44.0643 125.625 41.2411 126.571C40.3983 126.843 39.7875 127.591 39.6804 128.477C39.5733 129.371 39.9822 130.216 40.7304 130.671ZM65.8518 93.1518C74.209 80.6393 76.6143 82.2411 78.3679 83.4125C79.6715 84.2822 80.4518 85.2054 80.3054 87.1196C80.109 89.7071 78.2108 93.7161 74.6608 99.0339C69.6179 106.584 65.5268 110.359 60.8393 114.22L56.8304 111.543C58.6233 105.761 60.7893 100.736 65.8518 93.1518ZM48.2947 115.152C49.4733 113.816 51.484 113.171 54.275 113.273C54.4965 113.28 54.7125 113.352 54.9161 113.488L59.734 116.704C57.2626 117.007 55.5429 117.816 54.5179 119.198C53.8572 120.084 53.7304 120.73 53.2858 121.393C52.334 122.812 50.2804 122.977 49.1054 121.791C48.7608 121.45 48.3554 120.854 47.675 120.357C47.4661 120.218 47.2411 120.121 47.0143 120.029C46.9108 118.688 47.0054 116.614 48.2947 115.152ZM47.5429 123.991C48.6358 124.909 50.0893 125.366 51.5375 125.239C53.134 125.089 54.6179 124.211 55.5072 122.888C55.934 122.254 56.3411 121.234 56.6661 120.796C57.2572 120.002 58.4286 119.521 60.2608 119.327C60.5893 119.289 60.9018 119.261 61.2018 119.239C61.8143 123.45 60.1697 127.011 57.2911 129.057C53.3858 131.829 47.9268 131.729 42.8625 128.83C47.5036 126.984 47.4322 124.17 47.5429 123.991ZM66.3322 72.6571H101.913C103.354 72.6571 104.525 71.4857 104.525 70.0446V60.7768C104.525 59.3357 103.354 58.1643 101.913 58.1643H66.3322C64.8911 58.1643 63.7197 59.3357 63.7197 60.7768V70.0446C63.7215 71.4857 64.8929 72.6571 66.3322 72.6571ZM101.848 60.8429L101.914 69.9786L66.4 70.0446L66.334 60.8429H101.848Z" fill="black"/>
</svg>
