<svg width="216" height="192" viewBox="0 0 216 192" fill="none" xmlns="http://www.w3.org/2000/svg">
<path d="M5.856 47V13.4H19.152C22.704 13.4 25.824 14.12 28.512 15.56C31.2 17 33.28 18.984 34.752 21.512C36.256 24.04 37.008 26.936 37.008 30.2C37.008 33.464 36.256 36.36 34.752 38.888C33.28 41.416 31.2 43.4 28.512 44.84C25.824 46.28 22.704 47 19.152 47H5.856ZM8.304 44.792H18.96C22.128 44.792 24.88 44.168 27.216 42.92C29.552 41.672 31.36 39.96 32.64 37.784C33.92 35.576 34.56 33.048 34.56 30.2C34.56 27.352 33.92 24.84 32.64 22.664C31.36 20.456 29.552 18.728 27.216 17.48C24.88 16.232 22.128 15.608 18.96 15.608H8.304V44.792ZM47.6723 28.856H65.8643V31.016H47.6723V28.856ZM47.9603 44.792H68.6963V47H45.5123V13.4H67.9763V15.608H47.9603V44.792ZM86.4536 47.24C83.9576 47.24 81.5896 46.824 79.3496 45.992C77.1416 45.128 75.4296 44.024 74.2136 42.68L75.3176 40.856C76.4696 42.04 78.0376 43.048 80.0216 43.88C82.0376 44.68 84.1656 45.08 86.4056 45.08C88.6456 45.08 90.4696 44.792 91.8776 44.216C93.3176 43.608 94.3736 42.808 95.0456 41.816C95.7496 40.824 96.1016 39.72 96.1016 38.504C96.1016 37.064 95.7176 35.912 94.9496 35.048C94.1816 34.184 93.1736 33.496 91.9256 32.984C90.6776 32.472 89.3176 32.04 87.8456 31.688C86.3736 31.336 84.8856 30.968 83.3816 30.584C81.8776 30.168 80.5016 29.64 79.2536 29C78.0056 28.36 76.9976 27.496 76.2296 26.408C75.4936 25.288 75.1256 23.848 75.1256 22.088C75.1256 20.488 75.5416 19.016 76.3736 17.672C77.2056 16.328 78.5016 15.24 80.2616 14.408C82.0216 13.576 84.2776 13.16 87.0296 13.16C88.8856 13.16 90.7096 13.432 92.5016 13.976C94.3256 14.52 95.8776 15.256 97.1576 16.184L96.2456 18.152C94.8376 17.192 93.3176 16.488 91.6856 16.04C90.0856 15.56 88.5336 15.32 87.0296 15.32C84.8856 15.32 83.1096 15.624 81.7016 16.232C80.2936 16.84 79.2536 17.656 78.5816 18.68C77.9096 19.672 77.5736 20.792 77.5736 22.04C77.5736 23.48 77.9416 24.632 78.6776 25.496C79.4456 26.36 80.4536 27.048 81.7016 27.56C82.9496 28.072 84.3256 28.504 85.8296 28.856C87.3336 29.208 88.8216 29.592 90.2936 30.008C91.7656 30.392 93.1256 30.904 94.3736 31.544C95.6216 32.184 96.6296 33.048 97.3976 34.136C98.1656 35.224 98.5496 36.632 98.5496 38.36C98.5496 39.928 98.1176 41.4 97.2536 42.776C96.3896 44.12 95.0616 45.208 93.2696 46.04C91.5096 46.84 89.2376 47.24 86.4536 47.24ZM106.872 47V13.4H109.32V47H106.872ZM135.38 47.24C132.852 47.24 130.516 46.824 128.372 45.992C126.228 45.128 124.356 43.928 122.756 42.392C121.188 40.856 119.972 39.064 119.108 37.016C118.244 34.936 117.812 32.664 117.812 30.2C117.812 27.736 118.244 25.48 119.108 23.432C119.972 21.352 121.204 19.544 122.804 18.008C124.404 16.472 126.26 15.288 128.372 14.456C130.516 13.592 132.868 13.16 135.428 13.16C137.86 13.16 140.116 13.544 142.196 14.312C144.276 15.08 146.052 16.232 147.524 17.768L145.988 19.4C144.516 17.96 142.9 16.936 141.14 16.328C139.412 15.72 137.524 15.416 135.476 15.416C133.3 15.416 131.284 15.784 129.428 16.52C127.572 17.256 125.956 18.296 124.58 19.64C123.204 20.984 122.132 22.552 121.364 24.344C120.628 26.136 120.26 28.088 120.26 30.2C120.26 32.312 120.628 34.264 121.364 36.056C122.132 37.848 123.204 39.416 124.58 40.76C125.956 42.104 127.572 43.144 129.428 43.88C131.284 44.616 133.3 44.984 135.476 44.984C137.46 44.984 139.332 44.68 141.092 44.072C142.884 43.464 144.516 42.456 145.988 41.048L147.38 42.92C145.876 44.36 144.068 45.448 141.956 46.184C139.876 46.888 137.684 47.24 135.38 47.24ZM145.028 42.68V30.344H147.38V42.92L145.028 42.68ZM158.153 47V13.4H160.217L184.169 43.976H183.065V13.4H185.513V47H183.497L159.497 16.424H160.601V47H158.153Z" fill="black"/>
<path fill-rule="evenodd" clip-rule="evenodd" d="M75 191.981C75.537 191.994 76.0754 192 76.6154 192C114.383 192 145 160.66 145 122C145 83.3401 114.383 52 76.6154 52C76.0754 52 75.5369 52.0064 75 52.0192L75 191.981Z" fill="#9BA6DE"/>
<path fill-rule="evenodd" clip-rule="evenodd" d="M75 52.0192C74.463 52.0064 73.9246 52 73.3846 52C35.6168 52 4.99999 83.3401 4.99999 122C4.99998 160.66 35.6168 192 73.3846 192C73.9245 192 74.463 191.994 75 191.981L75 52.0192Z" fill="#468EBA"/>
<line x1="76" y1="52" x2="76" y2="192" stroke="black" stroke-width="2"/>
<line x1="76" y1="191" x2="216" y2="191" stroke="black" stroke-width="2"/>
<path fill-rule="evenodd" clip-rule="evenodd" d="M147 190C146.703 151.473 115.527 120.297 77 120V122C114.423 122.297 144.703 152.577 145 190H147Z" fill="black"/>
</svg>
