<svg width="138" height="170" viewBox="0 0 138 170" fill="none" xmlns="http://www.w3.org/2000/svg">
<path d="M0.400024 15C0.426691 10.5466 1.65336 7.10664 4.08002 4.67998C6.53336 2.22664 9.90669 0.999975 14.2 0.999975H16.8V4.51998H13.72C10.76 4.51998 8.48002 5.50664 6.88002 7.47998C5.30669 9.42664 4.49336 11.9333 4.44002 15C4.49336 18.0666 5.30669 20.5866 6.88002 22.56C8.48002 24.5066 10.76 25.48 13.72 25.48H16.8V29H14.2C9.90669 29 6.53336 27.7866 4.08002 25.36C1.65336 22.9066 0.426691 19.4533 0.400024 15Z" fill="black"/>
<path d="M21.6157 29V10.8C21.6157 7.57331 22.4023 5.06664 23.9756 3.27998C25.5756 1.49331 27.8423 0.599976 30.7757 0.599976C33.7357 0.599976 36.0023 1.31998 37.5756 2.75998C39.1757 4.19998 39.9757 6.22664 39.9757 8.83998C39.9757 10.52 39.5757 11.8933 38.7757 12.96C37.9757 14.0266 36.6156 14.8666 34.6956 15.48V15.64C36.6956 16.4133 38.029 17.52 38.6956 18.96C39.389 20.3733 39.7356 22.72 39.7356 26V29H35.9757V23.88C35.9757 21.8533 35.4023 20.28 34.2556 19.16C33.109 18.0133 31.4556 17.44 29.2956 17.44H27.1357V13.92H29.4156C31.9756 13.92 33.749 13.4 34.7356 12.36C35.7223 11.32 36.2156 10.08 36.2156 8.63998C36.2156 7.27998 35.7223 6.18664 34.7356 5.35998C33.7756 4.53331 32.4957 4.11998 30.8957 4.11998C29.0557 4.11998 27.669 4.63998 26.7356 5.67998C25.829 6.71998 25.3757 8.42664 25.3757 10.8V29H21.6157Z" fill="black"/>
<path d="M60.5044 29H44.5844V7.67998C44.5844 5.70664 45.2111 4.11998 46.4644 2.91998C47.3177 2.11998 48.2777 1.59998 49.3444 1.35998C50.4111 1.11998 51.7177 0.999975 53.2644 0.999975H60.5044V4.51998H52.7444C49.8111 4.51998 48.3444 5.74664 48.3444 8.19998V12.76H57.5844V16.28H48.3444V25.48H60.5044V29Z" fill="black"/>
<path d="M68.2569 29H64.6969V11.4C64.6969 8.51998 65.6169 6.06664 67.4569 4.03998C69.3236 2.01331 71.7236 0.999975 74.6569 0.999975H83.8169V29H80.0569V4.51998H74.6569C72.7102 4.51998 71.1502 5.09331 69.9769 6.23998C68.8302 7.38664 68.2569 9.21331 68.2569 11.72V15.12C69.7502 13.5466 71.8836 12.76 74.6569 12.76H78.2969V16.28H74.6569C73.1102 16.28 71.8436 16.4666 70.8569 16.84C69.8969 17.2133 69.0302 17.8533 68.2569 18.76V29Z" fill="black"/>
<path d="M87.6328 4.51998V0.999975H105.233V4.51998H98.3128V29H94.5528V4.51998H87.6328Z" fill="black"/>
<path d="M124.762 29H108.842V7.67998C108.842 5.70664 109.469 4.11998 110.722 2.91998C111.576 2.11998 112.536 1.59998 113.602 1.35998C114.669 1.11998 115.976 0.999975 117.522 0.999975H124.762V4.51998H117.002C114.069 4.51998 112.602 5.74664 112.602 8.19998V12.76H121.842V16.28H112.602V25.48H124.762V29Z" fill="black"/>
<path d="M138 33.1992V33H1.00002V170H1.19925L138 33.1992Z" fill="#FFA6A6"/>
<path d="M35.7493 87.0937H31.0141C30.5748 87.0937 30.1535 87.2682 29.8429 87.5788C29.5323 87.8894 29.3578 88.3107 29.3578 88.75C29.3578 89.1892 29.5323 89.6105 29.8429 89.9211C30.1535 90.2317 30.5748 90.4062 31.0141 90.4062H35.7477C36.1869 90.4062 36.6082 90.2317 36.9188 89.9211C37.2294 89.6105 37.4039 89.1892 37.4039 88.75C37.4039 88.3107 37.2294 87.8894 36.9188 87.5788C36.6082 87.2682 36.1886 87.0937 35.7493 87.0937ZM47.1062 88.75C47.1062 89.1892 47.2807 89.6105 47.5913 89.9211C47.9019 90.2317 48.3232 90.4062 48.7625 90.4062H53.496C53.9353 90.4062 54.3566 90.2317 54.6672 89.9211C54.9778 89.6105 55.1523 89.1892 55.1523 88.75C55.1523 88.3107 54.9778 87.8894 54.6672 87.5788C54.3566 87.2682 53.9353 87.0937 53.496 87.0937H48.7625C48.3232 87.0937 47.9019 87.2682 47.5913 87.5788C47.2807 87.8894 47.1062 88.3107 47.1062 88.75Z" fill="black"/>
<path d="M122.688 49H53.125C51.2982 49 49.8125 50.4856 49.8125 52.3125V78.8125H23.3125C21.4857 78.8125 20 80.2981 20 82.125V151.687C20 153.514 21.4857 155 23.3125 155H92.875C94.7019 155 96.1875 153.514 96.1875 151.687V125.187H122.688C124.514 125.187 126 123.702 126 121.875V52.3125C126 50.4856 124.514 49 122.688 49ZM92.875 151.687H23.3125V98.6875H92.875V151.687ZM92.875 95.375H23.3125V82.125L92.875 82.12V95.375ZM122.688 121.875H96.1875V82.125C96.1875 80.2981 94.7019 78.8125 92.875 78.8125H53.125V68.875H122.688V121.875ZM122.688 65.5625H53.125V52.3125H122.688V65.5625Z" fill="black"/>
<path d="M60.8282 60.5937H65.5618C66.0011 60.5937 66.4223 60.4192 66.7329 60.1086C67.0436 59.798 67.2181 59.3767 67.2181 58.9375C67.2181 58.4982 67.0436 58.0769 66.7329 57.7663C66.4223 57.4557 66.0011 57.2812 65.5618 57.2812H60.8266C60.3873 57.2812 59.966 57.4557 59.6554 57.7663C59.3448 58.0769 59.1703 58.4982 59.1703 58.9375C59.1703 59.3767 59.3448 59.798 59.6554 60.1086C59.966 60.4192 60.389 60.5937 60.8282 60.5937ZM78.575 60.5937H83.3085C83.7478 60.5937 84.1691 60.4192 84.4797 60.1086C84.7903 59.798 84.9648 59.3767 84.9648 58.9375C84.9648 58.4982 84.7903 58.0769 84.4797 57.7663C84.1691 57.4557 83.7478 57.2812 83.3085 57.2812H78.575C78.1357 57.2812 77.7144 57.4557 77.4038 57.7663C77.0932 58.0769 76.9187 58.4982 76.9187 58.9375C76.9187 59.3767 77.0932 59.798 77.4038 60.1086C77.7144 60.4192 78.1357 60.5937 78.575 60.5937ZM43.6728 136.296C43.8263 136.45 44.0087 136.573 44.2097 136.656C44.4106 136.74 44.6261 136.783 44.8438 136.783C45.0614 136.783 45.2769 136.74 45.4779 136.656C45.6788 136.573 45.8613 136.45 46.0147 136.296C46.3252 135.985 46.4997 135.564 46.4997 135.125C46.4997 134.686 46.3252 134.265 46.0147 133.954L38.9045 126.844L46.0147 119.733C46.1729 119.581 46.2991 119.398 46.3859 119.196C46.4727 118.994 46.5184 118.776 46.5203 118.557C46.5222 118.337 46.4803 118.119 46.397 117.915C46.3138 117.711 46.1908 117.526 46.0353 117.371C45.8798 117.215 45.6948 117.092 45.4913 117.009C45.2877 116.926 45.0697 116.884 44.8497 116.886C44.6298 116.888 44.4125 116.934 44.2104 117.02C44.0083 117.107 43.8256 117.233 43.6728 117.392L35.3916 125.673C35.0811 125.983 34.9066 126.405 34.9066 126.844C34.9066 127.283 35.0811 127.704 35.3916 128.015L43.6728 136.296ZM70.1728 136.296C70.3263 136.45 70.5087 136.573 70.7097 136.656C70.9106 136.74 71.1261 136.783 71.3438 136.783C71.5614 136.783 71.7769 136.74 71.9779 136.656C72.1788 136.573 72.3613 136.45 72.5147 136.296L80.796 128.015C81.1065 127.704 81.2809 127.283 81.2809 126.844C81.2809 126.405 81.1065 125.983 80.796 125.673L72.5147 117.392C72.362 117.233 72.1792 117.107 71.9771 117.02C71.7751 116.934 71.5577 116.888 71.3378 116.886C71.1179 116.884 70.8998 116.926 70.6963 117.009C70.4927 117.092 70.3078 117.215 70.1523 117.371C69.9968 117.526 69.8738 117.711 69.7905 117.915C69.7072 118.119 69.6653 118.337 69.6672 118.557C69.6691 118.776 69.7148 118.994 69.8016 119.196C69.8884 119.398 70.0146 119.581 70.1728 119.733L77.2831 126.844L70.1728 133.954C69.8623 134.265 69.6879 134.686 69.6879 135.125C69.6879 135.564 69.8623 135.985 70.1728 136.296ZM49.9632 145.054C50.1616 145.143 50.3755 145.192 50.5929 145.199C50.8102 145.205 51.0267 145.168 51.2299 145.091C51.4331 145.014 51.619 144.897 51.7771 144.748C51.9352 144.599 52.0623 144.42 52.1511 144.221L67.0574 110.959C67.1464 110.76 67.1954 110.546 67.2017 110.329C67.2079 110.112 67.1713 109.895 67.094 109.692C67.0166 109.489 66.9 109.303 66.7508 109.145C66.6016 108.987 66.4227 108.86 66.2243 108.771C66.0259 108.682 65.812 108.633 65.5947 108.626C65.3774 108.62 65.161 108.657 64.9578 108.734C64.7546 108.811 64.5687 108.928 64.4106 109.077C64.2525 109.227 64.1254 109.405 64.0364 109.604L49.1301 142.866C49.0411 143.065 48.992 143.279 48.9856 143.496C48.9793 143.713 49.0159 143.93 49.0932 144.133C49.1706 144.336 49.2873 144.522 49.4366 144.68C49.5858 144.838 49.7648 144.965 49.9632 145.054Z" fill="black"/>
</svg>
