<svg width="253" height="192" viewBox="0 0 253 192" fill="none" xmlns="http://www.w3.org/2000/svg">
<path d="M5.856 47V13.4H19.152C22.704 13.4 25.824 14.12 28.512 15.56C31.2 17 33.28 18.984 34.752 21.512C36.256 24.04 37.008 26.936 37.008 30.2C37.008 33.464 36.256 36.36 34.752 38.888C33.28 41.416 31.2 43.4 28.512 44.84C25.824 46.28 22.704 47 19.152 47H5.856ZM8.304 44.792H18.96C22.128 44.792 24.88 44.168 27.216 42.92C29.552 41.672 31.36 39.96 32.64 37.784C33.92 35.576 34.56 33.048 34.56 30.2C34.56 27.352 33.92 24.84 32.64 22.664C31.36 20.456 29.552 18.728 27.216 17.48C24.88 16.232 22.128 15.608 18.96 15.608H8.304V44.792ZM47.6723 28.856H65.8643V31.016H47.6723V28.856ZM47.9603 44.792H68.6963V47H45.5123V13.4H67.9763V15.608H47.9603V44.792ZM86.5609 47L71.5849 13.4H74.2729L88.5769 45.512H87.0889L101.441 13.4H103.985L89.0089 47H86.5609ZM111.563 28.856H129.755V31.016H111.563V28.856ZM111.851 44.792H132.587V47H109.403V13.4H131.867V15.608H111.851V44.792ZM141.512 47V13.4H143.96V44.792H163.304V47H141.512ZM183.19 47.24C180.694 47.24 178.374 46.824 176.23 45.992C174.118 45.128 172.262 43.928 170.662 42.392C169.094 40.824 167.878 39.016 167.014 36.968C166.15 34.888 165.718 32.632 165.718 30.2C165.718 27.768 166.15 25.528 167.014 23.48C167.878 21.4 169.094 19.592 170.662 18.056C172.262 16.488 174.118 15.288 176.23 14.456C178.374 13.592 180.694 13.16 183.19 13.16C185.686 13.16 187.99 13.592 190.102 14.456C192.246 15.288 194.102 16.472 195.67 18.008C197.238 19.544 198.454 21.352 199.318 23.432C200.214 25.48 200.662 27.736 200.662 30.2C200.662 32.664 200.214 34.936 199.318 37.016C198.454 39.064 197.238 40.856 195.67 42.392C194.102 43.928 192.246 45.128 190.102 45.992C187.99 46.824 185.686 47.24 183.19 47.24ZM183.19 44.984C185.334 44.984 187.318 44.616 189.142 43.88C190.966 43.144 192.55 42.104 193.894 40.76C195.238 39.416 196.278 37.848 197.014 36.056C197.782 34.264 198.166 32.312 198.166 30.2C198.166 28.056 197.782 26.104 197.014 24.344C196.278 22.552 195.238 20.984 193.894 19.64C192.55 18.296 190.966 17.256 189.142 16.52C187.318 15.784 185.334 15.416 183.19 15.416C181.046 15.416 179.062 15.784 177.238 16.52C175.414 17.256 173.814 18.296 172.438 19.64C171.094 20.984 170.038 22.552 169.27 24.344C168.534 26.104 168.166 28.056 168.166 30.2C168.166 32.312 168.534 34.264 169.27 36.056C170.038 37.848 171.094 39.416 172.438 40.76C173.814 42.104 175.414 43.144 177.238 43.88C179.062 44.616 181.046 44.984 183.19 44.984ZM209.153 47V13.4H221.201C224.017 13.4 226.433 13.848 228.449 14.744C230.465 15.64 232.017 16.936 233.105 18.632C234.193 20.296 234.737 22.328 234.737 24.728C234.737 27.064 234.193 29.08 233.105 30.776C232.017 32.472 230.465 33.768 228.449 34.664C226.433 35.56 224.017 36.008 221.201 36.008H210.497L211.601 34.856V47H209.153ZM211.601 35L210.497 33.8H221.201C224.817 33.8 227.553 33.016 229.409 31.448C231.297 29.848 232.241 27.608 232.241 24.728C232.241 21.816 231.297 19.576 229.409 18.008C227.553 16.408 224.817 15.608 221.201 15.608H210.497L211.601 14.408V35Z" fill="black"/>
<path d="M-3.0598e-06 122L105 61.3782L105 182.622L-3.0598e-06 122Z" fill="#FFA6A6"/>
<path d="M253 122L148 182.622L148 61.3782L253 122Z" fill="#175073"/>
<line x1="143.007" y1="60.8014" x2="110.179" y2="183.318" stroke="black" stroke-width="2"/>
</svg>
