
<svg width="116" height="96" viewBox="0 0 116 96" fill="none" xmlns="http://www.w3.org/2000/svg">
<path d="M52.925 22.6096C52.6894 22.6096 52.4538 22.5187 52.2906 22.337L48.0494 17.975C47.7231 17.6297 47.705 17.0844 48.0312 16.7391L52.5988 11.8682C52.9431 11.5047 53.505 11.4866 53.8675 11.8319C54.23 12.1772 54.2481 12.7406 53.9037 13.1041L49.9163 17.3389L53.5594 21.0829C53.9037 21.4282 53.9038 22.0098 53.5413 22.3552C53.3781 22.5187 53.1606 22.6096 52.925 22.6096Z" fill="currentColor"/>
<path d="M91.3862 63.1579C90.8969 63.1579 90.4981 62.758 90.4981 62.2673V52.1257C90.4981 46.8368 86.2025 42.5293 80.9281 42.5293H79.2063C72.3188 42.5293 66.7362 36.9133 66.7362 30.025V27.9894C66.7362 22.6278 62.3862 18.2658 57.0394 18.2658H48.7019C48.2125 18.2658 47.8137 17.866 47.8137 17.3752C47.8137 16.8845 48.2125 16.4847 48.7019 16.4847H57.0394C63.3831 16.4847 68.5306 21.6463 68.5306 28.0076V30.0432C68.5306 35.95 73.3337 40.7664 79.2244 40.7664H80.9462C87.1994 40.7664 92.2925 45.8735 92.2925 52.1439V62.2855C92.2744 62.758 91.8756 63.1579 91.3862 63.1579Z" fill="currentColor"/>
<path d="M59.45 39.476C59.2144 39.476 58.9969 39.3851 58.8156 39.2215L49.3906 29.7705C49.0463 29.4252 49.0463 28.8618 49.3906 28.4983C49.735 28.153 50.2969 28.153 50.6594 28.4983L60.0844 37.9493C60.4288 38.2946 60.4288 38.858 60.0844 39.2215C59.9031 39.3851 59.6856 39.476 59.45 39.476Z" fill="currentColor"/>
<path d="M50.025 39.476C49.7894 39.476 49.5719 39.3851 49.3906 39.2215C49.0463 38.8762 49.0463 38.3128 49.3906 37.9493L58.8156 28.4983C59.16 28.153 59.7219 28.153 60.0844 28.4983C60.4288 28.8436 60.4288 29.407 60.0844 29.7705L50.6594 39.2215C50.4781 39.3851 50.2425 39.476 50.025 39.476Z" fill="currentColor"/>
<path d="M85.3869 33.8236C85.1513 33.8236 84.9337 33.7327 84.7525 33.5691L75.3275 24.1181C74.9831 23.7728 74.9831 23.2094 75.3275 22.8459C75.6719 22.5006 76.2337 22.5006 76.5962 22.8459L86.0212 32.2969C86.3656 32.6422 86.3656 33.2056 86.0212 33.5691C85.8581 33.7327 85.6225 33.8236 85.3869 33.8236Z" fill="currentColor"/>
<path d="M75.9619 33.8236C75.7262 33.8236 75.5088 33.7327 75.3275 33.5691C74.9831 33.2238 74.9831 32.6604 75.3275 32.2969L84.7525 22.8459C85.0969 22.5006 85.6587 22.5006 86.0212 22.8459C86.3656 23.1912 86.3656 23.7546 86.0212 24.1181L76.5962 33.5691C76.415 33.7327 76.1975 33.8236 75.9619 33.8236Z" fill="currentColor"/>
<path d="M80.6744 58.9958C80.4387 58.9958 80.2212 58.905 80.04 58.7414L70.615 49.2904C70.2706 48.9451 70.2706 48.3817 70.615 48.0182C70.9594 47.6728 71.5212 47.6728 71.8837 48.0182L81.3088 57.4691C81.6531 57.8145 81.6531 58.3779 81.3088 58.7414C81.1275 58.905 80.91 58.9958 80.6744 58.9958Z" fill="currentColor"/>
<path d="M71.2494 58.9958C71.0138 58.9958 70.7962 58.905 70.615 58.7414C70.2706 58.3961 70.2706 57.8326 70.615 57.4691L80.04 48.0182C80.3844 47.6728 80.9463 47.6728 81.3088 48.0182C81.6531 48.3635 81.6531 48.9269 81.3088 49.2904L71.8837 58.7414C71.7025 58.905 71.4669 58.9958 71.2494 58.9958Z" fill="currentColor"/>
<path d="M91.3862 77.0254C88.0331 77.0254 85.3144 74.2991 85.3144 70.9368C85.3144 67.5744 88.0331 64.8482 91.3862 64.8482C94.7394 64.8482 97.4581 67.5744 97.4581 70.9368C97.4581 74.281 94.7394 77.0254 91.3862 77.0254ZM91.3862 66.6293C89.0119 66.6293 87.0906 68.5559 87.0906 70.9368C87.0906 73.3177 89.0119 75.2442 91.3862 75.2442C93.7606 75.2442 95.6819 73.3177 95.6819 70.9368C95.6819 68.5559 93.7606 66.6293 91.3862 66.6293Z" fill="currentColor"/>
<path d="M106.212 88.621H1.54063C0.68875 88.621 0 87.9303 0 87.0761V1.54487C0 0.690647 0.68875 0 1.54063 0H106.212C107.064 0 107.753 0.690647 107.753 1.54487V87.0761C107.753 87.9303 107.064 88.621 106.212 88.621ZM1.77625 86.8217H105.977V1.78114H1.77625V86.8217Z" fill="currentColor"/>
<path d="M113.408 96H9.86C8.42813 96 7.26813 94.855 7.26813 93.4373V87.7122C7.26813 87.2215 7.66687 86.8217 8.15625 86.8217C8.64563 86.8217 9.0625 87.2215 9.0625 87.7122V93.4373C9.0625 93.8554 9.425 94.2007 9.86 94.2007H113.408C113.843 94.2007 114.206 93.8554 114.206 93.4373V9.52367C114.206 9.08747 113.861 8.74214 113.408 8.74214H106.865C106.376 8.74214 105.977 8.34229 105.977 7.85157C105.977 7.36085 106.376 6.961 106.865 6.961H113.408C114.84 6.961 116 8.1242 116 9.54184V93.4373C116 94.855 114.84 96 113.408 96Z" fill="currentColor"/>
<path d="M40.1287 17.9932H8.17438C7.685 17.9932 7.28625 17.5933 7.28625 17.1026C7.28625 16.6119 7.685 16.212 8.17438 16.212H40.1287C40.6181 16.212 41.0169 16.6119 41.0169 17.1026C41.0169 17.5933 40.6181 17.9932 40.1287 17.9932Z" fill="currentColor"/>
<path d="M40.1287 27.1534H8.17438C7.685 27.1534 7.28625 26.7535 7.28625 26.2628C7.28625 25.7721 7.685 25.3722 8.17438 25.3722H40.1287C40.6181 25.3722 41.0169 25.7721 41.0169 26.2628C41.0169 26.7535 40.6181 27.1534 40.1287 27.1534Z" fill="currentColor"/>
<path d="M40.1287 36.3135H8.17438C7.685 36.3135 7.28625 35.9137 7.28625 35.4229C7.28625 34.9322 7.685 34.5324 8.17438 34.5324H40.1287C40.6181 34.5324 41.0169 34.9322 41.0169 35.4229C41.0169 35.9137 40.6181 36.3135 40.1287 36.3135Z" fill="currentColor"/>
<path d="M46.5994 45.4919H8.17438C7.685 45.4919 7.28625 45.092 7.28625 44.6013C7.28625 44.1106 7.685 43.7107 8.17438 43.7107H46.5994C47.0887 43.7107 47.4875 44.1106 47.4875 44.6013C47.4875 45.092 47.0887 45.4919 46.5994 45.4919Z" fill="currentColor"/>
<path d="M59.45 54.652H8.17438C7.685 54.652 7.28625 54.2522 7.28625 53.7615C7.28625 53.2707 7.685 52.8709 8.17438 52.8709H59.45C59.9394 52.8709 60.3381 53.2707 60.3381 53.7615C60.3381 54.2522 59.9394 54.652 59.45 54.652Z" fill="currentColor"/>
<path d="M59.45 63.8122H8.17438C7.685 63.8122 7.28625 63.4123 7.28625 62.9216C7.28625 62.4309 7.685 62.0311 8.17438 62.0311H59.45C59.9394 62.0311 60.3381 62.4309 60.3381 62.9216C60.3381 63.4123 59.9394 63.8122 59.45 63.8122Z" fill="currentColor"/>
<path d="M59.45 72.9724H8.17438C7.685 72.9724 7.28625 72.5725 7.28625 72.0818C7.28625 71.5911 7.685 71.1912 8.17438 71.1912H59.45C59.9394 71.1912 60.3381 71.5911 60.3381 72.0818C60.3381 72.5725 59.9394 72.9724 59.45 72.9724Z" fill="currentColor"/>
</svg>
