<svg width="122" height="118" viewBox="0 0 122 118" fill="none" xmlns="http://www.w3.org/2000/svg">
<path d="M112.445 78.5925L84.8739 87.2367C85.128 86.6011 85.255 85.9655 85.255 85.2028C85.3821 83.4231 84.7468 81.6434 83.4762 80.2451C82.0786 78.8467 80.0457 78.084 78.1399 78.084H60.479L45.2322 72.4907C41.4205 71.0924 37.6088 70.4568 33.543 70.4568H23.7596V65.6262C23.7596 62.8295 21.4726 60.5413 18.6773 60.5413H5.08227C2.28702 60.5413 0 62.8295 0 65.6262V109.737C0 112.534 2.28702 114.822 5.08227 114.822H18.5503C21.3455 114.822 23.6325 112.534 23.6325 109.737V105.415H29.223C30.3665 105.415 31.6371 105.669 32.6536 106.051L65.3071 117.492C66.3236 117.873 67.34 118 68.3565 118C69.8812 118 71.4059 117.619 72.8035 116.856L118.036 91.0504C119.56 90.2876 120.704 89.1436 121.466 87.491C121.593 87.3639 121.593 87.2367 121.593 87.2367C122.229 85.5842 122.101 83.6774 121.339 82.0248C119.814 78.5925 115.749 77.0671 112.445 78.5925ZM18.5503 112.152H5.08227C3.68464 112.152 2.54113 111.008 2.54113 109.61V65.4991C2.54113 64.1007 3.68464 62.9566 5.08227 62.9566H18.5503C19.9479 62.9566 21.0914 64.1007 21.0914 65.4991V109.61C21.2185 111.008 19.9479 112.152 18.5503 112.152ZM119.179 86.3469V86.474C118.798 87.491 118.036 88.2537 116.892 88.7622L71.5329 114.568C69.8812 115.458 67.9753 115.712 66.1965 115.076L35.0676 104.017L33.543 103.508C32.1453 103 30.7477 102.745 29.223 102.745H23.6325V72.8721H33.4159C37.1006 72.8721 40.7852 73.5077 44.2157 74.7789L59.7166 80.4993C59.8437 80.4993 59.9708 80.6264 60.0978 80.6264H78.0128C79.2834 80.6264 80.5539 81.1349 81.4433 82.1519C82.2057 83.0417 82.5868 84.0587 82.5868 85.2028C82.4598 86.2198 82.0786 87.2367 81.3163 87.9995C80.9351 88.3808 80.5539 88.6351 80.0457 88.8893L79.0293 89.2707H59.2084C58.4461 89.2707 57.9378 89.7792 57.9378 90.5419C57.9378 91.3046 58.4461 91.8131 59.2084 91.8131H78.394C79.2834 91.8131 80.2998 91.5589 81.0622 91.3046L113.08 81.262H113.208C115.367 80.2451 117.909 81.1349 118.798 83.296C119.56 84.0587 119.56 85.2028 119.179 86.3469Z" fill="currentColor"/>
<path d="M11.4351 99.5675C9.02102 99.5675 6.98812 101.601 6.98812 104.017C6.98812 106.432 9.02102 108.466 11.4351 108.466C13.8492 108.466 15.8821 106.432 15.8821 104.017C15.755 101.601 13.8492 99.5675 11.4351 99.5675ZM11.4351 105.796C10.4186 105.796 9.52925 104.907 9.52925 103.89C9.52925 102.873 10.2916 101.983 11.4351 101.983C12.4516 101.983 13.341 102.873 13.341 103.89C13.2139 105.034 12.4516 105.796 11.4351 105.796ZM49.0439 27.4899C48.9168 27.7441 48.7898 27.8713 48.5357 27.8713L43.3263 28.8882C41.6746 29.1425 40.404 30.5408 40.1499 32.1934C39.8958 33.8459 39.7687 35.4985 39.7687 37.1511C39.7687 38.8037 39.8958 40.4562 40.1499 42.1088C40.404 43.7614 41.6746 45.1597 43.3263 45.4139L48.5357 46.4309C48.7898 46.4309 48.9168 46.6852 49.0439 46.8123C49.425 47.9564 49.8062 48.9733 50.3144 49.9903C50.4415 50.2445 50.4415 50.3717 50.3144 50.6259L47.3921 54.948C46.3757 56.3463 46.5027 58.2532 47.5192 59.5244C49.5521 62.1939 51.8391 64.4821 54.5073 66.516C55.9049 67.533 57.6837 67.6601 59.0814 66.6431L63.4013 63.5922C63.6554 63.4651 63.7825 63.4651 64.0366 63.5922C65.053 64.1007 66.1965 64.4821 67.213 64.8634C67.4671 64.9906 67.5942 65.1177 67.5942 65.3719L68.6106 70.5839C68.8647 72.2365 70.2623 73.5077 71.9141 73.7619C73.5658 74.0162 75.2176 74.1433 76.8693 74.1433C78.521 74.1433 80.1728 74.0162 81.8245 73.7619C83.4762 73.5077 84.8739 72.2365 85.128 70.5839L86.1444 65.3719C86.1444 65.1177 86.3985 64.8634 86.5256 64.8634C87.5421 64.4821 88.6856 64.1007 89.702 63.5922C89.9561 63.4651 90.2102 63.4651 90.3373 63.5922L94.6572 66.6431C96.0549 67.6601 97.9607 67.533 99.2313 66.516C101.899 64.4821 104.186 62.1939 106.219 59.5244C107.236 58.126 107.363 56.3463 106.346 54.948L103.424 50.6259C103.297 50.3717 103.297 50.1174 103.424 49.9903C103.932 48.9733 104.314 47.8292 104.695 46.8123C104.822 46.558 104.949 46.4309 105.203 46.4309L110.412 45.4139C112.064 45.1597 113.335 43.7614 113.589 42.1088C113.843 40.4562 113.97 38.8037 113.97 37.1511C113.97 35.4985 113.843 33.8459 113.589 32.1934C113.335 30.5408 112.064 29.1425 110.412 28.8882L105.457 27.8713C105.203 27.8713 105.076 27.617 104.949 27.4899C104.568 26.4729 104.186 25.3288 103.678 24.3119C103.551 24.0576 103.551 23.8034 103.678 23.6763L106.728 19.227C107.744 17.8287 107.617 15.9219 106.601 14.6507C104.568 11.9811 102.281 9.69297 99.6124 7.65904C98.2148 6.64207 96.436 6.51495 95.0384 7.53191L90.7185 10.4557C90.4644 10.5828 90.2102 10.5828 90.0832 10.4557C89.0667 9.94721 88.0503 9.56585 86.9068 9.18449C86.6527 9.05737 86.5256 8.93024 86.5256 8.676L85.5092 3.46405C85.0009 1.81147 83.6033 0.540264 81.9516 0.286022C78.6481 -0.0953407 75.3446 -0.0953407 72.0411 0.286022C70.3894 0.540264 68.9918 1.81147 68.7377 3.59117L67.7212 8.80312C67.7212 9.05737 67.4671 9.18449 67.34 9.31161C66.1965 9.69297 65.1801 10.2015 64.1636 10.5828C63.9095 10.7099 63.6554 10.7099 63.5283 10.5828L59.2084 7.65904C57.8108 6.64207 55.9049 6.76919 54.6344 7.78616C51.9662 9.82009 49.6792 12.1083 47.6463 14.7778C46.6298 16.1761 46.5027 17.9558 47.5192 19.3542L50.5686 23.6763C50.6956 23.9305 50.6956 24.0576 50.5686 24.3119C49.9333 25.3288 49.425 26.3458 49.0439 27.4899ZM52.4744 22.2779L49.4251 17.8287C49.0439 17.3202 49.0439 16.6846 49.4251 16.1761C51.3309 13.7608 53.4909 11.4727 55.9049 9.69297C56.4132 9.31161 57.0484 9.31161 57.5567 9.69297L61.8766 12.7439C62.766 13.3795 64.0366 13.5066 65.053 12.9981C65.9424 12.6168 66.9589 12.1083 67.9753 11.854C68.9918 11.4727 69.8812 10.5828 70.0082 9.43873L71.1517 3.97253C71.2788 3.33692 71.787 2.95556 72.2953 2.82844C75.3446 2.44708 78.521 2.44708 81.5704 2.82844C82.2057 2.95556 82.7139 3.33692 82.7139 3.97253L83.7304 9.18449C83.9845 10.3286 84.7468 11.2184 85.7633 11.5998C86.7797 11.9811 87.7962 12.3625 88.6856 12.7439C89.702 13.2524 90.9726 13.1252 91.862 12.4896L96.1819 9.56585C96.6901 9.18449 97.3254 9.18449 97.8336 9.56585C100.248 11.4727 102.535 13.6337 104.314 16.049C104.695 16.5575 104.695 17.1931 104.314 17.7016L101.264 22.0237C100.629 22.9135 100.502 24.1848 101.01 25.2017C101.518 26.0916 101.899 27.1085 102.154 28.1255C102.535 29.1425 103.424 30.0323 104.568 30.1594L109.777 31.1764C110.412 31.3035 110.793 31.812 110.92 32.3205C111.175 33.8459 111.175 35.3714 111.175 36.8968C111.175 38.4223 111.048 39.9478 110.92 41.4732C110.793 42.1088 110.412 42.6173 109.777 42.6173L104.568 43.6343C103.424 43.8885 102.535 44.6512 102.154 45.7953C101.772 46.8123 101.391 47.7021 101.01 48.7191C100.502 49.7361 100.629 51.0073 101.264 51.8971L104.186 56.2192C104.568 56.7277 104.568 57.3633 104.186 57.8718C102.281 60.2871 100.121 62.5753 97.7066 64.355C97.1984 64.7363 96.5631 64.7363 96.0548 64.355L91.7349 61.3041C90.8455 60.6685 89.575 60.5413 88.5585 61.0498C87.6691 61.5583 86.6527 61.9397 85.6362 62.1939C84.6198 62.5753 83.7303 63.4651 83.4762 64.6092L82.4598 69.8212C82.3327 70.4568 81.8245 70.8381 81.3163 70.9653C78.2669 71.3466 75.0905 71.3466 72.0411 70.9653C71.4059 70.8381 71.0247 70.4568 70.8976 69.8212L69.8812 64.6092C69.6271 63.4651 68.8647 62.5753 67.8483 62.1939C66.8318 61.8125 65.9424 61.4312 64.926 61.0498C64.5448 60.7956 64.0366 60.6685 63.5283 60.6685C62.8931 60.6685 62.2578 60.7956 61.7495 61.1769L57.4296 64.2278C56.9214 64.6092 56.2861 64.6092 55.7779 64.2278C53.3638 62.321 51.0768 60.16 49.298 57.7447C48.9168 57.2362 48.9168 56.6006 49.298 56.0921L52.3474 51.77C52.9826 50.8801 53.1097 49.6089 52.6015 48.592C52.0932 47.7021 51.7121 46.6852 51.458 45.6682C51.0768 44.6512 50.1874 43.7614 49.0439 43.6343L43.8346 42.6173C43.1993 42.4902 42.8181 41.9817 42.691 41.4732C42.4369 39.9478 42.4369 38.4223 42.4369 36.8968C42.4369 35.3714 42.564 33.8459 42.691 32.3205C42.8181 31.6849 43.1993 31.1764 43.8346 31.1764L49.0439 30.1594C50.1874 29.9052 51.0768 29.1425 51.458 27.9984C51.8391 26.9814 52.2203 26.0916 52.6015 25.0746C53.1097 24.439 53.1097 23.1678 52.4744 22.2779Z" fill="currentColor"/>
<path d="M76.9963 54.948C86.7797 54.948 94.7843 46.9394 94.7843 37.1511C94.7843 27.3628 86.7797 19.3542 76.9963 19.3542C67.213 19.3542 59.2084 27.3628 59.2084 37.1511C59.2084 46.9394 67.213 54.948 76.9963 54.948ZM76.9963 22.0237C85.3821 22.0237 92.2431 28.8882 92.2431 37.2782C92.2431 45.6682 85.3821 52.5327 76.9963 52.5327C68.6106 52.5327 61.7495 45.6682 61.7495 37.2782C61.7495 28.7611 68.6106 22.0237 76.9963 22.0237Z" fill="currentColor"/>
</svg>
