<svg width="117" height="117" viewBox="0 0 117 117" fill="none" xmlns="http://www.w3.org/2000/svg">
<path d="M6.55357 116.964H84.1607C87.7732 116.964 90.7143 114.018 90.7143 110.393V101.92C91.8429 101.829 92.7411 101.968 93.6161 102.254C101.032 104.705 109.789 101.541 113.47 92.9375C119.95 78.0339 114.902 60.575 101.464 51.4268C98.1322 49.1607 94.4929 47.5357 90.7125 46.5589V6.55357C90.7125 2.94107 87.7732 0 84.1589 0H28.3196C26.1786 0 24.1179 0.876786 22.6643 2.24464L2.49286 21.4C0.925 22.9321 0 25.1339 0 27.3214V110.393C0 114.018 2.94107 116.964 6.55357 116.964ZM99.9607 53.6429C112.336 62.0679 116.984 78.1464 111.013 91.8786C107.891 99.1554 100.609 101.741 94.4589 99.7125C90.6464 98.4411 86.1375 99.6214 83.4429 102.907C79.1375 108.177 71.6393 110.023 65.1143 105.704C52.6304 97.6 47.5607 81.1518 53.3214 67.4464C57.0107 58.6804 64.3179 52.1179 73.3679 49.4429C82.5714 46.7232 92.2429 48.3929 99.9607 53.6429ZM4.35536 23.3339L24.5071 4.19464C24.525 4.17679 24.5482 4.16607 24.5661 4.15C24.8214 3.91607 25.1054 3.73393 25.3911 3.55536V21.2464C25.3911 22.8268 24.1125 24.1107 22.5429 24.1107H3.74107C3.86786 23.9321 4.15179 23.5304 4.35536 23.3339ZM2.67857 27.3232C2.67857 27.1411 2.69821 26.9661 2.71607 26.7893H22.5429C25.5911 26.7893 28.0696 24.3018 28.0696 21.2464V2.71071C28.1518 2.70714 28.2411 2.67857 28.3214 2.67857H84.1607C86.2964 2.67857 88.0357 4.41786 88.0357 6.55357V45.9839C82.9536 45.1018 77.6875 45.3714 72.6054 46.875C62.7839 49.7786 54.8536 56.8982 50.85 66.4071C44.5964 81.2911 50.1 99.15 63.6411 107.941C70.9589 112.836 79.9 111.339 85.5982 104.5C86.2679 103.702 87.1054 103.073 88.0339 102.629V110.393C88.0339 112.539 86.2946 114.286 84.1589 114.286H6.55357C4.41786 114.286 2.67857 112.539 2.67857 110.393V27.3232Z" fill="currentColor"/>
<path d="M72.9232 89.4393C69.2875 87.4554 64.0179 86.9339 62.1214 90.4036C60.5107 93.3536 62.7214 97.5643 67.1554 99.9893C70.8286 101.996 76.075 102.468 77.9429 99.0518C79.8554 95.5589 76.5107 91.4 72.9232 89.4393ZM75.5946 97.7661C74.8411 99.1429 71.7214 99.4339 68.4411 97.6393C65.1643 95.8482 63.7196 93.0643 64.4714 91.6875C64.8339 91.025 65.7268 90.6107 66.9232 90.5536C68.3411 90.4768 70.0732 90.9357 71.6393 91.7893C73.2018 92.6446 74.5089 93.8464 75.225 95.0911C75.8214 96.1286 75.9571 97.1036 75.5946 97.7661ZM97.6196 76.9411C95.9214 80.0464 97.0482 83.9571 100.179 85.6679C103.28 87.3625 107.196 86.2357 108.905 83.1071C110.611 79.9911 109.47 76.0875 106.346 74.3804C103.22 72.6696 99.325 73.8179 97.6196 76.9411ZM105.062 76.7321C106.85 77.7071 107.566 79.9714 106.555 81.8232C105.564 83.6375 103.282 84.3161 101.463 83.3179C99.6554 82.3304 98.9696 80.0571 99.9714 78.225C100.961 76.4125 103.223 75.7232 105.062 76.7321ZM85.7821 71.8107C82.6714 70.1089 78.7554 71.2571 77.0554 74.3714C75.3518 77.4893 76.4911 81.3911 79.6143 83.0982C82.7554 84.8143 86.6536 83.6321 88.3429 80.5393C90.0571 77.3982 88.8821 73.5036 85.7821 71.8107ZM85.9893 79.2554C85.0018 81.0607 82.7286 81.7446 80.8964 80.7464C79.075 79.7518 78.4107 77.4768 79.4054 75.6536C80.3982 73.8375 82.6875 73.1696 84.4982 74.1607C86.3125 75.1518 86.9893 77.425 85.9893 79.2554ZM94.7554 70.125C97.8768 71.8304 101.784 70.6786 103.484 67.5661C105.184 64.4571 104.037 60.5393 100.925 58.8375C97.8143 57.1375 93.8964 58.2839 92.1982 61.3982C90.5143 64.475 91.5982 68.3982 94.7554 70.125ZM94.5482 62.6821C95.5464 60.8571 97.8393 60.2018 99.6411 61.1893C101.457 62.1821 102.127 64.4679 101.134 66.2839C100.146 68.0893 97.8714 68.7732 96.0411 67.775C94.2196 66.7786 93.5518 64.5036 94.5482 62.6821ZM77.2554 55.6929C75.5714 58.7714 76.6554 62.6929 79.8143 64.4196C82.9446 66.1304 86.8464 64.9661 88.5429 61.8607C90.2464 58.7429 89.1089 54.8393 85.9839 53.1321C82.8696 51.4304 78.9554 52.5786 77.2554 55.6929ZM79.6054 56.975C80.5911 55.1732 82.8661 54.4857 84.6982 55.4821C86.5143 56.4732 87.1875 58.75 86.1893 60.5768C85.2018 62.3821 82.9268 63.0661 81.0964 62.0679C79.2768 61.0714 78.6089 58.7982 79.6054 56.975ZM64.4607 69.2589C67.5679 70.9571 71.4821 69.8232 73.1875 66.6982C74.8928 63.5804 73.75 59.6786 70.6286 57.9714C67.4857 56.2536 63.6 57.4214 61.9 60.5304C60.2018 63.6429 61.3482 67.5571 64.4607 69.2589ZM64.2518 61.8161C64.9429 60.55 66.2339 59.8571 67.5429 59.8571C68.1643 59.8571 68.7821 60.0143 69.3446 60.3232C71.1661 61.3161 71.8321 63.5982 70.8357 65.4143C69.8429 67.2286 67.5589 67.9054 65.7429 66.9089C63.9286 65.9161 63.2589 63.6304 64.2518 61.8161ZM67.275 81.4214C68.9589 78.3375 67.8714 74.4179 64.7143 72.6929C61.6018 70.9893 57.6857 72.1393 55.9875 75.2536C54.2839 78.3714 55.4232 82.2732 58.5464 83.9804C61.6768 85.6893 65.5786 84.525 67.275 81.4214ZM58.3375 76.5357C59.3304 74.7196 61.6196 74.0518 63.4304 75.0429C65.2429 76.0321 65.9232 78.3071 64.9232 80.1375C63.9339 81.9464 61.6554 82.625 59.8304 81.6286C58.0089 80.6321 57.3429 78.3589 58.3375 76.5357ZM14.7304 83.6714C15.0518 83.875 15.3821 84.0214 15.7089 84.2036C14.6929 85.4536 14.3536 87.3036 15.0161 88.9482C15.7232 90.6982 17.4321 92.0893 19.5857 92.6643C21.3661 93.1411 23.2054 93.0536 24.8357 92.9768L32.1179 92.6304C33.6286 92.5589 35.1911 92.4839 36.5625 92.9054C37.7607 93.2732 38.8714 94.225 39.4607 95.3875C39.9196 96.2946 40.0179 97.2429 39.7321 98.0607C39.3482 99.1643 38.2732 100.15 36.8554 100.695C35.4393 101.239 33.8304 101.363 32.1679 101.45C29.2321 101.604 26.2714 101.661 23.3661 101.623C21.5911 101.6 19.8929 101.513 18.625 100.709C18.0018 100.313 17.1732 100.498 16.7768 101.123C16.3804 101.748 16.5661 102.575 17.1911 102.971C19.0482 104.148 21.2429 104.273 23.3304 104.3C23.9143 104.307 24.4982 104.311 25.0857 104.311C27.4804 104.311 29.9018 104.248 32.3071 104.125C34.1929 104.025 36.0339 103.88 37.8161 103.195C39.9929 102.357 41.6125 100.807 42.2625 98.9393C42.7875 97.4286 42.6411 95.7375 41.85 94.1768C40.9304 92.3607 39.2482 90.9286 37.35 90.3446C35.5321 89.7839 33.6536 89.8696 31.9911 89.9536L24.7089 90.3C23.2071 90.3679 21.6536 90.4446 20.2786 90.075C18.9321 89.7161 17.8946 88.9196 17.5018 87.9464C17.1375 87.0429 17.5018 85.8411 18.2393 85.5214C18.2768 85.5054 18.3018 85.4732 18.3375 85.4536C20.4768 86.2893 22.6393 86.7571 24.7304 86.7571C25.4679 86.7571 26.1964 86.7054 26.9107 86.6C29.0554 86.2857 31.0732 85.5 32.8464 84.2411C36.8411 81.4 38.9536 76.5946 37.6071 70.4018C37.4857 69.8732 37.2571 69.3839 36.9464 68.9518C41.5107 65.1643 45.8143 61.125 50.8911 53.5196C54.8054 47.6554 56.7393 43.4607 56.9786 40.3214C57.2393 36.8607 55.3214 35.1607 53.8571 34.1821C49.1411 31.0357 44.8946 33.7768 37.6268 44.6643C32.4589 52.4036 30.15 57.7714 28.3321 63.5946C24.7054 63.5161 22.0143 64.4196 20.2875 66.3786C18.0161 68.9536 18.1679 72.4411 18.4643 74.3036C18.5589 74.8518 18.6714 75.3357 18.7821 75.7036C19.2625 77.3196 18.0643 78.625 15.2411 79.5714C14.3982 79.8429 13.7875 80.5911 13.6804 81.4768C13.5732 82.3714 13.9821 83.2161 14.7304 83.6714ZM39.8518 46.1518C48.2089 33.6393 50.6143 35.2411 52.3679 36.4125C53.6714 37.2821 54.4518 38.2054 54.3054 40.1196C54.1089 42.7071 52.2107 46.7161 48.6607 52.0339C43.6179 59.5839 39.5268 63.3589 34.8393 67.2197L30.8304 64.5429C32.6232 58.7607 34.7893 53.7357 39.8518 46.1518ZM22.2946 68.1518C23.4732 66.8161 25.4839 66.1714 28.275 66.2732C28.4964 66.2804 28.7125 66.3518 28.9161 66.4875L33.7339 69.7036C31.2625 70.0071 29.5429 70.8161 28.5179 72.1982C27.8571 73.0839 27.7304 73.7304 27.2857 74.3929C26.3339 75.8125 24.2804 75.9768 23.1054 74.7911C22.7607 74.45 22.3554 73.8536 21.675 73.3571C21.4661 73.2179 21.2411 73.1214 21.0143 73.0286C20.9107 71.6875 21.0054 69.6143 22.2946 68.1518ZM21.5429 76.9911C22.6357 77.9089 24.0893 78.3661 25.5375 78.2393C27.1339 78.0893 28.6179 77.2107 29.5071 75.8875C29.9339 75.2536 30.3411 74.2339 30.6661 73.7964C31.2571 73.0018 32.4286 72.5214 34.2607 72.3268C34.5893 72.2893 34.9018 72.2607 35.2018 72.2393C35.8143 76.45 34.1696 80.0107 31.2911 82.0571C27.3857 84.8286 21.9268 84.7286 16.8625 81.8304C21.5036 79.9839 21.4321 77.1696 21.5429 76.9911ZM40.3321 25.6571H75.9125C77.3536 25.6571 78.525 24.4857 78.525 23.0446V13.7768C78.525 12.3357 77.3536 11.1643 75.9125 11.1643H40.3321C38.8911 11.1643 37.7196 12.3357 37.7196 13.7768V23.0446C37.7214 24.4857 38.8929 25.6571 40.3321 25.6571ZM75.8482 13.8429L75.9143 22.9786L40.4 23.0446L40.3339 13.8429H75.8482Z" fill="currentColor"/>
</svg>
