<svg width="215" height="192" viewBox="0 0 215 192" fill="none" xmlns="http://www.w3.org/2000/svg">
<rect x="5" y="52" width="140" height="140" fill="#5BC0EB"/>
<line x1="75" y1="131" x2="215" y2="131" stroke="black" stroke-width="2"/>
<line x1="75" y1="136" x2="215" y2="136" stroke="black" stroke-width="2"/>
<line x1="75" y1="121" x2="215" y2="121" stroke="black" stroke-width="2"/>
<line x1="75" y1="126" x2="215" y2="126" stroke="black" stroke-width="2"/>
<line x1="75" y1="141" x2="215" y2="141" stroke="black" stroke-width="2"/>
<line x1="75" y1="146" x2="215" y2="146" stroke="black" stroke-width="2"/>
<line x1="75" y1="151" x2="215" y2="151" stroke="black" stroke-width="2"/>
<line x1="75" y1="101" x2="215" y2="101" stroke="black" stroke-width="2"/>
<line x1="75" y1="106" x2="215" y2="106" stroke="black" stroke-width="2"/>
<line x1="75" y1="91" x2="215" y2="91" stroke="black" stroke-width="2"/>
<line x1="75" y1="96" x2="215" y2="96" stroke="black" stroke-width="2"/>
<line x1="75" y1="111" x2="215" y2="111" stroke="black" stroke-width="2"/>
<line x1="75" y1="116" x2="215" y2="116" stroke="black" stroke-width="2"/>
<line x1="75" y1="121" x2="215" y2="121" stroke="black" stroke-width="2"/>
<path d="M5.856 47V13.4H17.904C20.72 13.4 23.136 13.848 25.152 14.744C27.168 15.64 28.72 16.936 29.808 18.632C30.896 20.296 31.44 22.328 31.44 24.728C31.44 27.064 30.896 29.08 29.808 30.776C28.72 32.472 27.168 33.768 25.152 34.664C23.136 35.56 20.72 36.008 17.904 36.008H7.2L8.304 34.856V47H5.856ZM8.304 35L7.2 33.8H17.904C21.52 33.8 24.256 33.016 26.112 31.448C28 29.848 28.944 27.608 28.944 24.728C28.944 21.816 28 19.576 26.112 18.008C24.256 16.408 21.52 15.608 17.904 15.608H7.2L8.304 14.408V35ZM39.6998 47V13.4H42.1478V44.792H61.4918V47H39.6998ZM62.1619 47L77.6179 13.4H80.0659L95.5219 47H92.8819L78.2899 14.936H79.3459L64.8019 47H62.1619ZM67.8259 37.544L68.6419 35.48H88.7539L89.5699 37.544H67.8259ZM101.622 47V13.4H103.686L127.638 43.976H126.534V13.4H128.982V47H126.966L102.966 16.424H104.07V47H101.622Z" fill="black"/>
<rect x="5" y="52" width="70" height="70" fill="#175073"/>
</svg>
