<svg width="141" height="170" viewBox="0 0 141 170" fill="none" xmlns="http://www.w3.org/2000/svg">
<path d="M0 33H119V152H0V33Z" fill="#5BC0EB"/>
<path d="M4.36 29H0.6V10.6C0.6 7.45331 1.44 4.99998 3.12 3.23997C4.82667 1.47998 7.08 0.599976 9.88 0.599976C12.8667 0.599976 15.1733 1.45331 16.8 3.15998C18.4533 4.86664 19.28 7.03998 19.28 9.67998C19.28 11.3333 18.9733 12.7733 18.36 14C17.7733 15.2266 16.9733 16.1733 15.96 16.84C14.9467 17.5066 13.8667 18 12.72 18.32C11.5733 18.64 10.3733 18.8 9.12 18.8H6.12V15.28H9.56C11.3467 15.28 12.7467 14.7466 13.76 13.68C14.8 12.5866 15.32 11.2266 15.32 9.59998C15.32 7.99998 14.84 6.69331 13.88 5.67998C12.9467 4.63998 11.6 4.11998 9.84 4.11998C8.13333 4.11998 6.78667 4.70664 5.8 5.87998C4.84 7.02664 4.36 8.54664 4.36 10.44V29Z" fill="black"/>
<path d="M38.9753 25.48V29H33.1353C32.042 29 31.1753 28.9866 30.5353 28.96C29.922 28.9066 29.1486 28.7466 28.2153 28.48C27.282 28.1866 26.4953 27.76 25.8553 27.2C24.8686 26.2933 24.2286 25.2133 23.9353 23.96C23.642 22.68 23.4953 21.1866 23.4953 19.48V0.999975H27.2553V19.4C27.2553 20.9466 27.4286 22.16 27.7753 23.04C28.4686 24.6666 29.922 25.48 32.1353 25.48H38.9753Z" fill="black"/>
<path d="M45.9522 29H42.3922V11.4C42.3922 8.51998 43.3122 6.06664 45.1522 4.03998C47.0189 2.01331 49.4189 0.999975 52.3522 0.999975H61.5122V29H57.7522V4.51998H52.3522C50.4055 4.51998 48.8455 5.09331 47.6722 6.23998C46.5255 7.38664 45.9522 9.21331 45.9522 11.72V15.12C47.4455 13.5466 49.5789 12.76 52.3522 12.76H55.9922V16.28H52.3522C50.8055 16.28 49.5389 16.4666 48.5522 16.84C47.5922 17.2133 46.7255 17.8533 45.9522 18.76V29Z" fill="black"/>
<path d="M70.8881 29H67.1281V0.999975H77.0081C80.3148 0.999975 82.7815 1.74664 84.4081 3.23997C86.0348 4.70664 86.8481 7.02664 86.8481 10.2V29H83.0881V9.67998C83.0881 7.86664 82.5281 6.55998 81.4081 5.75998C80.3148 4.93331 78.8615 4.51998 77.0481 4.51998H70.8881V29Z" fill="black"/>
<path d="M76.8375 81.32C76.5978 81.32 76.3581 81.2101 76.1922 80.9905L71.8778 75.7198C71.5459 75.3025 71.5275 74.6437 71.8594 74.2264L76.5056 68.3408C76.8559 67.9016 77.4275 67.8796 77.7962 68.2969C78.165 68.7141 78.1834 69.3949 77.8331 69.8342L73.7769 74.9512L77.4828 79.4752C77.8331 79.8925 77.8331 80.5952 77.4644 81.0125C77.2984 81.2101 77.0772 81.32 76.8375 81.32Z" fill="black"/>
<path d="M115.962 130.316C115.464 130.316 115.058 129.833 115.058 129.24V116.985C115.058 110.594 110.689 105.39 105.323 105.39H103.572C96.5656 105.39 90.8869 98.6036 90.8869 90.2802V87.8205C90.8869 81.3419 86.4619 76.0712 81.0228 76.0712H72.5416C72.0438 76.0712 71.6381 75.588 71.6381 74.9951C71.6381 74.4021 72.0438 73.919 72.5416 73.919H81.0228C87.4759 73.919 92.7122 80.156 92.7122 87.8425V90.3022C92.7122 97.4396 97.5981 103.259 103.59 103.259H105.342C111.703 103.259 116.884 109.431 116.884 117.007V129.262C116.865 129.833 116.46 130.316 115.962 130.316Z" fill="black"/>
<path d="M83.475 101.7C83.2353 101.7 83.0141 101.59 82.8297 101.393L73.2422 89.9727C72.8919 89.5555 72.8919 88.8747 73.2422 88.4354C73.5925 88.0182 74.1641 88.0182 74.5328 88.4354L84.1203 99.8554C84.4706 100.273 84.4706 100.953 84.1203 101.393C83.9359 101.59 83.7147 101.7 83.475 101.7Z" fill="black"/>
<path d="M73.8875 101.7C73.6478 101.7 73.4266 101.59 73.2422 101.393C72.8919 100.975 72.8919 100.295 73.2422 99.8554L82.8297 88.4354C83.18 88.0182 83.7516 88.0182 84.1203 88.4354C84.4706 88.8527 84.4706 89.5335 84.1203 89.9727L74.5328 101.393C74.3484 101.59 74.1087 101.7 73.8875 101.7Z" fill="black"/>
<path d="M109.859 94.8701C109.619 94.8701 109.398 94.7603 109.214 94.5627L99.6263 83.1428C99.2759 82.7255 99.2759 82.0447 99.6263 81.6055C99.9766 81.1882 100.548 81.1882 100.917 81.6055L110.504 93.0254C110.855 93.4426 110.855 94.1234 110.504 94.5627C110.338 94.7603 110.099 94.8701 109.859 94.8701Z" fill="black"/>
<path d="M100.272 94.8701C100.032 94.8701 99.8106 94.7603 99.6263 94.5627C99.2759 94.1454 99.2759 93.4646 99.6263 93.0254L109.214 81.6055C109.564 81.1882 110.136 81.1882 110.504 81.6055C110.855 82.0227 110.855 82.7035 110.504 83.1428L100.917 94.5627C100.732 94.7603 100.511 94.8701 100.272 94.8701Z" fill="black"/>
<path d="M105.065 125.287C104.826 125.287 104.604 125.177 104.42 124.979L94.8325 113.559C94.4822 113.142 94.4822 112.461 94.8325 112.022C95.1828 111.605 95.7544 111.605 96.1231 112.022L105.711 123.442C106.061 123.859 106.061 124.54 105.711 124.979C105.526 125.177 105.305 125.287 105.065 125.287Z" fill="black"/>
<path d="M95.4778 125.287C95.2381 125.287 95.0169 125.177 94.8325 124.979C94.4822 124.562 94.4822 123.881 94.8325 123.442L104.42 112.022C104.77 111.605 105.342 111.605 105.711 112.022C106.061 112.439 106.061 113.12 105.711 113.559L96.1231 124.979C95.9387 125.177 95.6991 125.287 95.4778 125.287Z" fill="black"/>
<path d="M115.962 147.072C112.551 147.072 109.785 143.778 109.785 139.715C109.785 135.652 112.551 132.358 115.962 132.358C119.373 132.358 122.138 135.652 122.138 139.715C122.138 143.756 119.373 147.072 115.962 147.072ZM115.962 134.51C113.547 134.51 111.592 136.838 111.592 139.715C111.592 142.592 113.547 144.92 115.962 144.92C118.377 144.92 120.332 142.592 120.332 139.715C120.332 136.838 118.377 134.51 115.962 134.51Z" fill="black"/>
<path d="M131.044 161.084H24.5672C23.7006 161.084 23 160.249 23 159.217V55.8667C23 54.8345 23.7006 54 24.5672 54H131.044C131.91 54 132.611 54.8345 132.611 55.8667V159.217C132.611 160.249 131.91 161.084 131.044 161.084ZM24.8069 158.91H130.804V56.1522H24.8069V158.91Z" fill="black"/>
<path d="M138.363 170H33.03C31.5734 170 30.3934 168.616 30.3934 166.903V159.986C30.3934 159.393 30.7991 158.91 31.2969 158.91C31.7947 158.91 32.2188 159.393 32.2188 159.986V166.903C32.2188 167.409 32.5875 167.826 33.03 167.826H138.363C138.806 167.826 139.175 167.409 139.175 166.903V65.5078C139.175 64.9807 138.824 64.5634 138.363 64.5634H131.707C131.21 64.5634 130.804 64.0803 130.804 63.4873C130.804 62.8944 131.21 62.4112 131.707 62.4112H138.363C139.82 62.4112 141 63.8167 141 65.5297V166.903C141 168.616 139.82 170 138.363 170Z" fill="black"/>
<path d="M63.8206 75.7418H31.3153C30.8175 75.7418 30.4119 75.2586 30.4119 74.6657C30.4119 74.0727 30.8175 73.5896 31.3153 73.5896H63.8206C64.3184 73.5896 64.7241 74.0727 64.7241 74.6657C64.7241 75.2586 64.3184 75.7418 63.8206 75.7418Z" fill="black"/>
<path d="M63.8206 86.8103H31.3153C30.8175 86.8103 30.4119 86.3271 30.4119 85.7342C30.4119 85.1412 30.8175 84.6581 31.3153 84.6581H63.8206C64.3184 84.6581 64.7241 85.1412 64.7241 85.7342C64.7241 86.3271 64.3184 86.8103 63.8206 86.8103Z" fill="black"/>
<path d="M63.8206 97.8788H31.3153C30.8175 97.8788 30.4119 97.3957 30.4119 96.8027C30.4119 96.2098 30.8175 95.7266 31.3153 95.7266H63.8206C64.3184 95.7266 64.7241 96.2098 64.7241 96.8027C64.7241 97.3957 64.3184 97.8788 63.8206 97.8788Z" fill="black"/>
<path d="M70.4028 108.969H31.3153C30.8175 108.969 30.4119 108.486 30.4119 107.893C30.4119 107.3 30.8175 106.817 31.3153 106.817H70.4028C70.9006 106.817 71.3063 107.3 71.3063 107.893C71.3063 108.486 70.9006 108.969 70.4028 108.969Z" fill="black"/>
<path d="M83.475 120.038H31.3153C30.8175 120.038 30.4119 119.555 30.4119 118.962C30.4119 118.369 30.8175 117.886 31.3153 117.886H83.475C83.9728 117.886 84.3784 118.369 84.3784 118.962C84.3784 119.555 83.9728 120.038 83.475 120.038Z" fill="black"/>
<path d="M83.475 131.106H31.3153C30.8175 131.106 30.4119 130.623 30.4119 130.03C30.4119 129.437 30.8175 128.954 31.3153 128.954H83.475C83.9728 128.954 84.3784 129.437 84.3784 130.03C84.3784 130.623 83.9728 131.106 83.475 131.106Z" fill="black"/>
<path d="M83.475 142.175H31.3153C30.8175 142.175 30.4119 141.692 30.4119 141.099C30.4119 140.506 30.8175 140.023 31.3153 140.023H83.475C83.9728 140.023 84.3784 140.506 84.3784 141.099C84.3784 141.692 83.9728 142.175 83.475 142.175Z" fill="black"/>
</svg>
