<svg width="50" height="50" viewBox="0 0 50 50" fill="none" xmlns="http://www.w3.org/2000/svg">
<rect width="50" height="50" transform="matrix(1 0 0 -1 0 50)" fill="#175073"/>
<path fill-rule="evenodd" clip-rule="evenodd" d="M50 25C50 38.8071 38.8071 50 25 50C11.1929 50 -4.89256e-07 38.8071 -1.09278e-06 25L50 25Z" fill="#9BA6DE"/>
<path fill-rule="evenodd" clip-rule="evenodd" d="M0 0V25C13.8071 25 25 13.8071 25 0H0Z" fill="#FFA6A6"/>
<path fill-rule="evenodd" clip-rule="evenodd" d="M25 25L50 25C50 38.8071 38.8071 50 25 50L25 25Z" fill="#5BC0EB"/>
<path fill-rule="evenodd" clip-rule="evenodd" d="M25 25L50 25C50 11.1929 38.8071 -6.03528e-07 25 0L25 25Z" fill="#468EBA"/>
</svg>
