<svg width="52" height="58" viewBox="0 0 52 58" fill="none" xmlns="http://www.w3.org/2000/svg">
<path d="M51.3111 0.964166C50.8538 0.453858 50.2015 0.162598 49.5178 0.162598H2.90168C2.21806 0.162598 1.56574 0.453858 1.10839 0.964166C0.651034 1.47447 0.434394 2.15569 0.509014 2.83449L5.80948 50.5507C5.91539 51.5208 6.60142 52.3319 7.54019 52.5991L25.5454 57.7431C25.762 57.8057 25.9859 57.837 26.2073 57.837C26.4288 57.837 26.6527 57.8057 26.8693 57.7431L44.8745 52.5991C45.8133 52.3319 46.4969 51.5208 46.6052 50.5507L51.9081 2.83449C51.9851 2.15569 51.7685 1.47447 51.3111 0.964166ZM39.4874 24.4119L38.4138 41.9477L26.2868 45.9122L14.1598 41.9477L13.7 33.5613H19.8381L19.9922 37.3742L26.2868 39.5093L32.5814 37.3742L33.0411 30.5139H19.5324L19.2267 24.4143H33.3493L33.809 18.3146H12.624L12.1643 12.2126H40.2553L39.4874 24.4119Z" fill="#FFF"/>
</svg>
