<svg width="37" height="58" viewBox="0 0 37 58" fill="none" xmlns="http://www.w3.org/2000/svg">
<path d="M8.02041 57.0825C3.58932 57.0825 -0.0032959 53.4898 -0.0032959 49.0588C-0.0032959 44.6277 3.58932 41.035 8.02041 41.035H13.7513C15.0171 41.035 16.0441 42.0621 16.0441 43.3278V49.0588C16.0441 53.4898 12.4515 57.0825 8.02041 57.0825ZM28.0797 16.9639H22.3487C21.083 16.9639 20.056 15.9369 20.056 14.6711V3.20928C20.056 1.94354 21.083 0.916504 22.3487 0.916504H28.0797C32.5108 0.916504 36.1034 4.50912 36.1034 8.94021C36.1034 13.3713 32.5108 16.9639 28.0797 16.9639ZM8.02041 0.916504H13.7513C15.0171 0.916504 16.0441 1.94354 16.0441 3.20928V14.6711C16.0441 15.9369 15.0171 16.9639 13.7513 16.9639H8.02041C3.58932 16.9639 -0.0032959 13.3713 -0.0032959 8.94021C-0.0032959 4.50912 3.58932 0.916504 8.02041 0.916504ZM8.02041 20.9758H13.7513C15.0171 20.9758 16.0441 22.0028 16.0441 23.2685V34.7304C16.0441 35.9962 15.0171 37.0232 13.7513 37.0232H8.02041C3.58932 37.0232 -0.0032959 33.4306 -0.0032959 28.9995C-0.0032959 24.5684 3.58932 20.9758 8.02041 20.9758ZM28.0797 20.9758C25.9517 20.9758 23.9108 21.8211 22.4061 23.3259C20.9013 24.8306 20.056 26.8715 20.056 28.9995C20.056 31.1275 20.9013 33.1684 22.4061 34.6731C23.9108 36.1778 25.9517 37.0232 28.0797 37.0232C30.2077 37.0232 32.2486 36.1778 33.7533 34.6731C35.258 33.1684 36.1034 31.1275 36.1034 28.9995C36.1034 26.8715 35.258 24.8306 33.7533 23.3259C32.2486 21.8211 30.2077 20.9758 28.0797 20.9758Z" fill="#FFF"/>
</svg>
