<svg width="49" height="50" viewBox="0 0 49 50" fill="none" xmlns="http://www.w3.org/2000/svg">
<path d="M24.4868 49.472C38.1056 49.472 48.9611 38.6185 48.9611 24.9997C48.9611 11.3808 38.1097 0.527344 24.4888 0.527344C10.868 0.527344 0.0165253 11.3808 0.0165253 24.9976C0.0165253 38.6144 10.868 49.472 24.4868 49.472ZM5.33517 25.2117L24.2767 44.1533C13.8475 44.1533 5.33517 35.641 5.33517 25.2117ZM24.4868 5.84599C30.8394 5.85823 36.4701 8.93358 39.9859 13.671L40.0226 13.722L37.2573 16.0611C34.4042 11.9274 29.6933 9.25172 24.3583 9.25172C24.3318 9.25172 24.3033 9.25172 24.2767 9.25172H24.2727C24.2441 9.25172 24.2115 9.25172 24.1768 9.25172C17.449 9.25172 11.7286 13.5609 9.62395 19.5709L9.59132 19.679L29.5954 39.6851C34.4919 37.9822 38.3198 33.7281 39.3843 28.6175H31.0841V24.9997H43.6405C43.6405 34.1503 37.2552 41.8121 28.7429 43.7271L5.7614 20.7435C7.67228 12.2312 15.3382 5.84599 24.4868 5.84599Z" fill="#FFF"/>
</svg>
