<svg width="59" height="58" viewBox="0 0 59 58" fill="none" xmlns="http://www.w3.org/2000/svg">
<path d="M29.6093 0.560059C13.6573 0.560059 0.723907 13.4935 0.723907 29.4454C0.723907 42.9806 10.0442 54.3061 22.6094 57.4401C22.4746 57.0502 22.3879 56.5976 22.3879 56.0368V51.0998C21.2157 51.0998 19.2515 51.0998 18.758 51.0998C16.7818 51.0998 15.0246 50.2501 14.1724 48.671C13.2265 46.9162 13.0628 44.2323 10.7182 42.5907C10.0226 42.0442 10.5521 41.4208 11.3537 41.505C12.8341 41.9239 14.0617 42.9397 15.2171 44.4465C16.3677 45.9558 16.9093 46.2976 19.0589 46.2976C20.1012 46.2976 21.661 46.2374 23.1293 46.0063C23.9188 44.0012 25.2837 42.155 26.9518 41.2836C17.333 40.2943 12.7426 35.5089 12.7426 29.0121C12.7426 26.2151 13.9341 23.5095 15.9585 21.2299C15.2942 18.9672 14.4589 14.3528 16.2137 12.5956C20.5417 12.5956 23.1582 15.4023 23.7865 16.1606C25.9432 15.4216 28.3118 15.0027 30.8008 15.0027C33.2945 15.0027 35.6728 15.4216 37.8344 16.1654C38.4554 15.4119 41.0743 12.5956 45.412 12.5956C47.174 14.3552 46.3291 18.9889 45.6575 21.2468C47.6698 23.5215 48.8541 26.2199 48.8541 29.0121C48.8541 35.5041 44.271 40.287 34.6666 41.2812C37.3096 42.6605 39.2377 46.5359 39.2377 49.4557V56.0368C39.2377 56.2871 39.1823 56.4677 39.1535 56.6819C50.4091 52.7366 58.4946 42.0491 58.4946 29.4454C58.4946 13.4935 45.5612 0.560059 29.6093 0.560059Z" fill="#FFF"/>
</svg>
