<svg width="53" height="58" viewBox="0 0 53 58" fill="none" xmlns="http://www.w3.org/2000/svg">
<path d="M51.7269 0.915826C51.2695 0.405518 50.6172 0.114258 49.9336 0.114258H3.31746C2.63384 0.114258 1.98151 0.405518 1.52416 0.915826C1.06681 1.42613 0.850165 2.10735 0.924786 2.78615L6.22525 50.5023C6.33116 51.4724 7.01719 52.2836 7.95596 52.5508L25.9612 57.6948C26.1778 57.7574 26.4017 57.7887 26.6231 57.7887C26.8446 57.7887 27.0684 57.7574 27.2851 57.6948L45.2903 52.5508C46.2291 52.2836 46.9127 51.4724 47.021 50.5023L52.3239 2.78615C52.4009 2.10735 52.1842 1.42613 51.7269 0.915826ZM40.1752 17.9991H18.6796L19.19 24.118H39.6576L38.1219 42.1954L26.6327 45.8494L26.5196 45.8133L15.158 42.1906L14.537 34.8248H20.1023L20.3454 37.6869L26.6929 39.0854L32.9298 37.6845L33.5917 29.9504H14.1182L12.6113 12.1498H40.6758L40.1752 17.9991Z" fill="#FFF"/>
</svg>
