<svg width="54" height="54" viewBox="0 0 54 54" fill="none" xmlns="http://www.w3.org/2000/svg">
<path d="M48.8031 0.521484H5.47511C2.81525 0.521484 0.660889 2.67585 0.660889 5.33571V48.6637C0.660889 51.3236 2.81525 53.478 5.47511 53.478H48.8031C51.463 53.478 53.6174 51.3236 53.6174 48.6637V5.33571C53.6174 2.67585 51.463 0.521484 48.8031 0.521484ZM27.1391 39.95C27.1391 44.2274 24.5154 46.6249 20.1585 46.6249C15.8546 46.6249 13.1129 44.1095 13.1129 40.0415H17.7755C17.7875 41.5507 18.6878 42.5039 20.0791 42.5039C21.5089 42.5039 22.2768 41.6037 22.2768 39.9091V26.9949H27.1391V39.95ZM40.3325 46.6249C35.4966 46.6249 32.454 44.3478 32.3722 40.6649H37.0083C37.1262 42.0562 38.5151 42.942 40.5299 42.942C42.3449 42.942 43.5917 42.0682 43.5917 40.8093C43.5917 39.7502 42.7565 39.1797 40.5708 38.744L38.0554 38.2409C34.5578 37.579 32.7573 35.6725 32.7573 32.6661C32.7573 28.9302 35.7518 26.4798 40.359 26.4798C44.8362 26.4798 47.9342 28.9037 48.0136 32.4398H43.5243C43.4184 31.0894 42.133 30.1482 40.4216 30.1482C38.7149 30.1482 37.5908 30.957 37.5908 32.228C37.5908 33.2751 38.4381 33.8841 40.4505 34.2812L42.9105 34.7578C46.6873 35.4872 48.3819 37.1938 48.3819 40.2268C48.3843 44.2154 45.3393 46.6249 40.3325 46.6249Z" fill="#FFF"/>
</svg>
