<svg width="84" height="84" viewBox="0 0 84 84" fill="none" xmlns="http://www.w3.org/2000/svg">
<path d="M33.6667 40.9042V57.625C33.6667 59.35 32.2667 60.75 30.5417 60.75C28.8167 60.75 27.4167 59.35 27.4167 57.625V30.5417C27.4167 29.1688 28.3146 27.9563 29.6292 27.5521C30.9355 27.1563 32.3667 27.6542 33.1334 28.7938L33.6521 29.5646L33.6667 29.5L65.4042 76.4709C76.425 68.973 83.6667 56.3334 83.6667 42C83.6667 18.9875 65.0125 0.333374 42 0.333374C18.9875 0.333374 0.333374 18.9875 0.333374 42C0.333374 65.0125 18.9875 83.6667 42 83.6667C48.4209 83.6667 54.4792 82.1709 59.9105 79.5771L33.6667 40.9042ZM50.3334 26.375C50.3334 24.65 51.7334 23.25 53.4584 23.25C55.1834 23.25 56.5834 24.65 56.5834 26.375V53.0209L50.3334 44.0542V26.375Z" fill="white"/>
</svg>
