<svg width="62" height="64" viewBox="0 0 62 64" fill="none" xmlns="http://www.w3.org/2000/svg">
<path d="M28.9832 0.70752C22.3885 0.70752 16.741 4.83874 14.4654 10.6416C9.70471 11.2774 5.45103 14.0542 3.00336 18.2954C-0.293239 24.0058 0.457878 30.9597 4.34326 35.8316C2.51519 40.2711 2.79105 45.3442 5.23652 49.5832C8.53451 55.296 14.9392 58.1223 21.1037 57.19C24.0345 60.9941 28.5635 63.2924 33.459 63.2924C40.0537 63.2924 45.7012 59.1612 47.9769 53.3584C52.7375 52.7225 56.9912 49.9458 59.4389 45.7045C62.7355 39.9941 61.9843 33.0403 58.099 28.1683C59.927 23.7289 59.6512 18.6557 57.2057 14.4168C53.9077 8.70397 47.503 5.87767 41.3385 6.80993C38.4078 3.00591 33.8788 0.70752 28.9832 0.70752ZM28.9832 5.52174C31.7662 5.52174 34.376 6.61612 36.3503 8.47422C36.1996 8.55481 36.0434 8.6185 35.8943 8.70459L25.208 14.8775C24.0959 15.5178 23.4075 16.7044 23.4027 17.9898L23.3369 32.3526L18.1983 29.3531V16.3067C18.1983 10.3612 23.0377 5.52174 28.9832 5.52174ZM44.4414 11.4596C47.8962 11.7054 51.1776 13.6059 53.0356 16.8239C54.4268 19.2332 54.7854 22.0413 54.1639 24.6799C54.017 24.5885 53.8824 24.485 53.7314 24.3978L43.0404 18.2249C41.9283 17.5846 40.5583 17.5823 39.4438 18.2202L26.9758 25.3475L27.004 19.4003L38.3014 12.8747C40.2322 11.7599 42.3685 11.3121 44.4414 11.4596ZM13.4075 15.7943C13.4019 15.9656 13.384 16.1341 13.384 16.3067V28.6479C13.384 29.9333 14.0656 31.1221 15.1753 31.7696L27.5822 39.0051L22.4201 41.9528L11.118 35.432C5.96915 32.4592 4.20071 25.8467 7.17349 20.6978C8.56396 18.29 10.8136 16.5759 13.4075 15.7943ZM40.0221 22.0471L51.3243 28.568C56.4731 31.5408 58.2415 38.1533 55.2687 43.3021C53.8783 45.71 51.6286 47.424 49.0347 48.2057C49.0403 48.0344 49.0582 47.8659 49.0582 47.6932V35.3521C49.0582 34.0667 48.3766 32.8779 47.267 32.2304L34.86 24.9949L40.0221 22.0471ZM31.2446 27.0588L35.5088 29.5459L35.4853 34.4917L31.1976 36.9411L26.9334 34.4494L26.957 29.5082L31.2446 27.0588ZM39.1053 31.6474L44.244 34.6469V47.6932C44.244 53.6388 39.4045 58.4782 33.459 58.4782C30.676 58.4782 28.0663 57.3839 26.0919 55.5257C26.2427 55.4452 26.3988 55.3815 26.5479 55.2954L37.2342 49.1225C38.3463 48.4822 39.0347 47.2955 39.0395 46.0101L39.1053 31.6474ZM35.4665 38.6525L35.4383 44.5997L24.1408 51.1252C18.992 54.098 12.3794 52.3249 9.40666 47.1761C8.01538 44.7668 7.65679 41.9587 8.27832 39.3201C8.42527 39.4115 8.55986 39.515 8.71085 39.6021L19.4018 45.7751C20.5139 46.4154 21.8839 46.4176 22.9984 45.7798L35.4665 38.6525Z" fill="#FFF"/>
</svg>
