<svg width="57" height="62" viewBox="0 0 57 62" fill="none" xmlns="http://www.w3.org/2000/svg">
<path d="M42.3938 0.166626C40.3384 0.166626 38.556 0.572687 36.9128 0.984091C39.7925 2.21296 41.5749 3.71966 42.5329 4.40355C44.7275 6.31631 45.9585 8.23442 48.1531 11.3814C48.5599 12.0653 49.245 13.0217 49.6571 14.523C50.0693 15.8908 50.0693 16.9861 50.0693 18.0814C50.0693 19.5881 49.9301 20.817 49.7909 22.0458C49.6571 23.0076 49.6571 23.419 49.5233 23.6915C49.5233 23.8304 49.5233 23.9639 49.3841 24.2364C49.3841 24.9203 49.3841 25.1982 49.5233 25.7431C49.5233 26.2881 49.6571 26.8384 49.6571 27.7948C49.7963 29.574 49.7963 30.8029 49.5233 32.3042V32.8545C49.245 34.0834 48.972 35.3176 48.2869 36.4076C48.426 36.6854 48.5599 36.819 48.699 37.0915C49.3841 36.1351 49.9301 35.1787 50.476 34.0888C52.1246 31.0754 53.0827 28.4787 53.7678 26.5659C54.9989 23.0076 55.684 20.4056 56.0962 18.4928C57.0543 14.3895 57.1934 12.4767 56.7813 10.2861C56.7813 9.6022 56.5083 8.36799 55.8232 7.13912C54.3138 4.40355 51.9854 3.17468 50.3422 2.35188C49.245 1.8069 46.3653 0.300198 42.3938 0.166626ZM12.7089 0.770374C11.1299 0.738316 9.20298 0.914633 7.04057 1.94047C6.35545 2.2183 4.30009 3.17468 2.65688 5.35993C1.55962 6.72772 0.740684 8.7794 0.328543 11.1036C-0.083599 13.1552 -0.222764 15.6237 0.60152 20.272C1.14747 23.5525 1.69878 25.7431 2.79604 30.2525C2.93521 30.8029 3.75414 33.266 5.53652 38.7371L5.67033 39.0096C5.94866 39.966 6.76759 42.0176 8.54997 44.0693C9.78104 45.4371 10.8783 46.2599 11.8418 46.2599H12.1094C13.8918 46.2599 15.1282 44.8921 16.2201 43.7968C16.2201 43.6579 18.8268 40.5163 19.7849 39.421C19.6457 39.2821 19.3781 39.2821 19.2389 39.1432C17.5957 38.1868 16.3593 36.6854 15.4012 35.0398C13.7579 32.0317 13.8918 29.0237 14.1647 27.517L14.3039 25.1982C13.7579 21.5009 13.8971 17.9478 14.5822 14.3895C15.1282 11.3814 15.8133 8.37333 18.2755 5.22636C19.0997 4.13106 20.0578 3.17468 21.0159 2.49079C18.8268 1.53441 16.4984 0.984091 14.1647 0.850518C13.7205 0.813118 13.2334 0.78106 12.7089 0.770374ZM29.9225 1.94047C29.2374 1.94047 28.5522 1.94047 27.8671 2.07939C25.1266 2.62436 22.5253 4.13106 20.47 6.72772C18.4146 9.32971 17.8687 11.7875 17.3227 14.6619C17.0444 15.7572 17.0444 16.7136 16.9052 17.8089C17.7295 17.125 18.8268 16.3022 20.47 15.8908C21.4281 15.6183 23.8956 14.8009 25.9509 16.0297C26.636 16.4411 27.5941 17.2639 28.5522 19.5881C30.6076 25.3317 28.5576 31.2143 28.2846 31.7593C28.1454 32.3042 27.8725 32.7156 27.7333 32.9881C27.4603 33.672 27.1874 34.2223 26.9144 35.3176C26.7752 36.274 26.636 37.0968 26.636 38.0532C27.0482 38.0532 27.4603 38.1868 27.8671 38.4593C28.5522 39.1432 28.6914 40.1049 28.8306 40.5109C29.1035 42.7015 29.1035 45.4371 29.1035 48.1727C29.1035 50.3633 29.1035 52.4149 29.2374 53.7827C29.5157 56.9297 30.4738 59.1149 31.844 60.2102C32.8021 61.0331 34.0332 61.0277 34.7183 61.1666H34.9966C37.052 61.1666 40.3384 59.7988 41.5695 57.8861C42.2546 56.7908 42.5329 55.8344 42.8059 54.4666C42.9451 53.6438 42.9397 53.2377 43.0789 52.4149C43.0789 52.0035 43.2181 51.3196 43.2181 50.5022C43.2181 49.8183 43.3519 48.9955 43.491 48.0338C43.6302 45.7096 44.037 42.9794 44.1762 41.4727C44.3153 39.6935 45.1343 38.1868 45.8194 37.2304C44.8613 37.0915 43.9032 36.274 43.3572 34.9062C42.5329 33.3995 42.3938 32.9881 42.2546 32.3042C42.1208 31.7593 41.8478 31.0754 40.8844 29.0237C38.829 24.3753 38.5614 23.0076 38.5614 21.9123C38.4222 20.4056 38.2831 18.3592 39.9316 16.9914C42.3938 14.8009 45.5464 14.9398 47.1896 15.4847V15.2069C46.9166 14.117 46.3707 13.2942 45.9585 12.7492C43.9032 9.6022 42.8059 7.96193 40.8844 6.32166C40.0654 5.63777 38.0101 3.99215 34.9966 2.9022C33.6264 2.49079 31.9778 1.94047 29.9225 1.94047ZM45.07 17.9799C44.0745 17.9104 42.8059 18.0814 41.7087 19.0431C41.1627 19.5881 41.1627 20.6834 41.3019 21.6398C41.3019 22.3237 41.4357 23.2801 43.491 27.9337C44.4491 30.119 44.7221 30.8029 44.8613 31.3532C45.0004 31.8982 45.1343 32.1707 45.9585 33.672C46.0977 33.9498 46.2315 34.2223 46.5045 34.4948C46.7775 34.0834 46.9166 33.3995 47.0504 32.3042L47.1896 31.8982C47.4626 30.6693 47.3288 29.7076 47.3288 28.0673C47.3288 27.2445 47.1896 26.6995 47.1896 26.2881C47.0504 25.6042 47.0504 25.0592 47.0504 24.2364C46.7775 23.825 46.7775 23.6915 46.9166 23.4136C46.9166 23.1411 47.0504 22.7351 47.1896 21.9123C47.3288 20.817 47.4679 19.8606 47.4679 18.7653C47.1896 18.6264 47.0558 18.4928 46.7828 18.3592C46.7828 18.3592 46.0602 18.0493 45.07 17.9799ZM23.644 18.5195C22.7715 18.418 21.7706 18.7012 21.1551 18.9042C19.6457 19.3156 18.6929 20.272 18.0078 20.817C17.5957 21.2284 17.1835 21.6398 16.7714 22.1848C16.7714 23.1411 16.9052 24.1029 17.0444 25.0592V25.1982L16.7714 27.9337C16.4984 29.1626 16.3593 31.4868 17.7295 33.8109C18.4146 35.1787 19.3781 36.274 20.6091 36.9579C21.4334 37.5029 22.5253 37.9143 23.7564 38.1921C23.7564 37.2304 23.8956 36.1351 24.0347 35.1787C24.3077 33.8109 24.5807 33.127 24.9928 32.3042C25.132 31.8982 25.2658 31.6257 25.5441 31.2143C25.6779 30.8029 27.5941 25.6042 25.8118 20.817C25.405 19.7217 24.9928 19.0378 24.4415 18.7653C24.206 18.6264 23.9277 18.5516 23.644 18.5195ZM43.748 19.2996C44.1066 19.2782 44.4491 19.3103 44.5883 19.4492C45.0004 19.7217 44.4491 20.4056 44.31 20.5445C44.1762 20.6834 43.9032 20.9559 43.491 21.0948C42.9451 21.2284 42.5329 20.817 42.3938 20.817C42.2546 20.6781 41.8478 20.272 41.987 19.8606C42.1208 19.5881 42.26 19.5881 42.8059 19.4492C43.0093 19.3797 43.3893 19.3156 43.748 19.2996ZM23.1516 20.4323C23.6119 20.4002 23.9973 20.5765 24.3077 20.6781C24.7199 20.817 25.1266 20.9559 25.1266 21.2284C25.2658 21.6398 24.859 21.9123 24.7199 22.0458C24.3077 22.4572 23.6226 22.4626 23.6226 22.4626C22.9375 22.4626 22.5253 22.0512 22.2524 21.6398C22.1132 21.5009 21.9794 21.2284 22.1185 20.9559C22.2524 20.6834 22.5253 20.5445 22.6645 20.5445C22.8358 20.475 22.9963 20.443 23.1516 20.4323ZM48.2869 38.3257C47.6018 39.2821 46.6437 40.5163 46.5045 42.1566C46.5045 42.429 46.5045 42.568 46.3653 42.8404C47.4626 43.1129 48.426 43.1129 49.3841 42.9794C51.5787 42.7015 53.0827 41.6062 53.3557 41.3337C54.3138 40.6499 55.5502 39.2821 55.2719 38.7371C55.1381 38.4646 54.7259 38.5982 52.5314 38.7371C51.9854 38.7371 50.3422 39.1485 49.245 38.876H48.972C48.699 38.7371 48.426 38.5982 48.2869 38.3257ZM24.4415 41.0613C24.1685 41.4727 23.7618 41.7451 23.4888 42.0176C22.3915 42.7015 21.0159 43.2519 19.6457 43.5243C18.4146 43.9357 17.7295 43.9357 17.7295 44.3471C17.5903 44.8921 18.9606 45.576 19.6457 45.8485C21.9794 46.8049 24.3077 46.2599 24.7199 46.121C24.9928 45.9821 25.6779 45.7096 26.3631 45.2982C26.3631 43.7968 26.2293 42.429 26.0901 41.3337V41.1948H25.9509C25.5388 41.1948 24.9928 41.2002 24.4415 41.0613Z" fill="#FFF"/>
</svg>
