<svg width="59" height="54" viewBox="0 0 59 54" fill="none" xmlns="http://www.w3.org/2000/svg">
<path d="M18.7317 0.958984C17.2609 0.958984 15.8969 1.28823 14.6885 1.98389C10.912 4.16423 9.4746 9.47753 10.2363 16.0928C4.12777 18.7408 0.245819 22.6399 0.245819 27C0.245819 31.3601 4.12777 35.2592 10.2363 37.9072C9.475 44.5222 10.912 49.8358 14.6885 52.0161C15.8945 52.7118 17.2585 53.041 18.7317 53.041C21.8673 53.041 25.4913 51.4673 29.1312 48.7674C32.7714 51.4673 36.3998 53.041 39.5354 53.041C41.0061 53.041 42.3702 52.7118 43.5785 52.0161C47.355 49.8358 48.7924 44.5224 48.0308 37.9072C54.137 35.2592 58.0165 31.3591 58.0165 27C58.0165 22.6399 54.1346 18.7408 48.0261 16.0928C48.7873 9.47779 47.3503 4.16423 43.5738 1.98389C42.3679 1.28583 41.0038 0.958984 39.5306 0.958984C36.3951 0.958984 32.7711 2.53268 29.1312 5.23255C25.491 2.53268 21.8662 0.958984 18.7317 0.958984ZM18.7317 5.17143C20.6132 5.17143 23.1013 6.17185 25.8026 8.02518C24.2143 9.52405 22.6588 11.2284 21.1623 13.1262C18.735 13.4742 16.4465 13.9816 14.3265 14.6165C14.3151 14.4695 14.2881 14.3152 14.2795 14.1699C14.0219 9.88523 14.9629 6.6913 16.7947 5.63217C17.3363 5.31924 17.9686 5.17143 18.7317 5.17143ZM39.5306 5.17143C40.2913 5.17143 40.926 5.31924 41.4676 5.63217C43.2994 6.68889 44.2404 9.88523 43.9829 14.1699C43.9741 14.3152 43.9473 14.4695 43.9359 14.6165C41.8145 13.9812 39.5243 13.4743 37.0953 13.1262C35.5988 11.2287 34.048 9.52387 32.4598 8.02518C35.1609 6.17216 37.6501 5.17143 39.5306 5.17143ZM29.1312 10.7003C29.7837 11.2942 30.4317 11.9219 31.0869 12.609C30.4376 12.5872 29.7916 12.5573 29.1312 12.5573C28.4723 12.5573 27.828 12.5873 27.1801 12.609C27.8348 11.9226 28.4793 11.2936 29.1312 10.7003ZM29.1312 16.7698C31.1259 16.7698 33.0166 16.8813 34.8105 17.0754C35.9044 18.5623 36.9826 20.1345 37.9933 21.8849C38.962 23.5627 39.8186 25.2801 40.5744 27C39.8185 28.7209 38.9626 30.441 37.9933 32.1198C36.9858 33.8652 35.9103 35.4272 34.8199 36.9105C32.9626 37.1137 31.0574 37.2302 29.1312 37.2302C27.1364 37.2302 25.2458 37.1187 23.4519 36.9246C22.3579 35.4377 21.2797 33.8702 20.269 32.1198C19.2998 30.441 18.4441 28.7209 17.688 27C18.4435 25.2801 19.3003 23.5627 20.269 21.8849C21.277 20.1395 22.3518 18.5728 23.4425 17.0895C25.2997 16.8863 27.205 16.7698 29.1312 16.7698ZM40.5556 18.0721C41.5106 18.3026 42.4287 18.5515 43.2918 18.829C43.0962 19.7125 42.8571 20.613 42.5866 21.5229C42.2768 20.9416 41.9764 20.3585 41.6416 19.7787C41.2971 19.1822 40.9146 18.6462 40.5556 18.0721ZM17.7021 18.0768C17.3443 18.6492 16.9642 19.1841 16.6208 19.7787C16.286 20.3586 15.9854 20.9415 15.6758 21.5229C15.4046 20.6111 15.1616 19.7096 14.9659 18.8243C15.8448 18.5466 16.7606 18.3007 17.7021 18.0768ZM11.0026 20.371C11.5098 22.5124 12.2133 24.7323 13.1182 26.9953C12.2153 29.2529 11.5147 31.4687 11.0073 33.6054C6.81539 31.5812 4.45827 29.0614 4.45827 27C4.45827 24.8841 6.74954 22.4729 10.5889 20.5544C10.7199 20.4888 10.8687 20.4351 11.0026 20.371ZM47.255 20.3945C51.4469 22.4188 53.8041 24.9386 53.8041 27C53.8041 29.1158 51.5128 31.5271 47.6735 33.4456C47.5424 33.5112 47.3936 33.5649 47.2597 33.629C46.7523 31.4863 46.0545 29.2644 45.1488 27C46.0507 24.7443 46.7481 22.5295 47.255 20.3945ZM29.1312 22.1858C26.4713 22.1858 24.3169 24.3401 24.3169 27C24.3169 29.6599 26.4713 31.8142 29.1312 31.8142C31.791 31.8142 33.9454 29.6599 33.9454 27C33.9454 24.3401 31.791 22.1858 29.1312 22.1858ZM15.6758 32.4771C15.9856 33.0586 16.2905 33.6412 16.6255 34.2213C16.9696 34.8174 17.3482 35.3541 17.7068 35.9279C16.7518 35.6974 15.8337 35.4485 14.9706 35.171C15.1663 34.2869 15.405 33.3876 15.6758 32.4771ZM42.5866 32.4818C42.8574 33.3927 43.1009 34.2913 43.2965 35.1757C42.4175 35.4534 41.5017 35.6993 40.5603 35.9232C40.9181 35.3508 41.2982 34.8159 41.6416 34.2213C41.9756 33.6426 42.2775 33.0619 42.5866 32.4818ZM14.3265 39.3835C16.4479 40.0188 18.7381 40.5257 21.167 40.8738C22.664 42.7722 24.2136 44.4803 25.8026 45.9795C23.1015 47.8323 20.6131 48.8333 18.7317 48.8333C17.971 48.8333 17.3363 48.6807 16.7947 48.3678C14.9629 47.3111 14.0219 44.1195 14.2795 39.8348C14.2883 39.6879 14.3149 39.532 14.3265 39.3835ZM43.9359 39.3835C43.9474 39.532 43.9741 39.6879 43.9829 39.8348C44.2404 44.1195 43.2994 47.3087 41.4676 48.3678C40.926 48.6807 40.2937 48.8333 39.5306 48.8333C37.6493 48.8333 35.1609 47.8326 32.4598 45.9795C34.0488 44.4801 35.6028 42.7725 37.1 40.8738C39.5273 40.5258 41.8158 40.0184 43.9359 39.3835ZM27.1754 41.391C27.8248 41.4128 28.4707 41.4427 29.1312 41.4427C29.7916 41.4427 30.4376 41.4128 31.0869 41.391C30.4317 42.0781 29.7837 42.7058 29.1312 43.2997C28.4787 42.7058 27.8307 42.0781 27.1754 41.391Z" fill="#FFF"/>
</svg>
