<svg width="72" height="66" viewBox="0 0 72 66" fill="none" xmlns="http://www.w3.org/2000/svg">
<path d="M23.0391 0.484863C21.2061 0.484863 19.506 0.895207 18 1.76221C13.2934 4.47958 11.5019 11.1016 12.4512 19.3462C4.8381 22.6464 0 27.5059 0 32.9399C0 38.3739 4.8381 43.2334 12.4512 46.5337C11.5024 54.778 13.2934 61.4003 18 64.1177C19.503 64.9847 21.2031 65.395 23.0391 65.395C26.9469 65.395 31.4636 63.4337 36 60.0688C40.5368 63.4337 45.0589 65.395 48.9668 65.395C50.7998 65.395 52.4999 64.9847 54.0059 64.1177C58.7124 61.4003 60.5039 54.7782 59.5547 46.5337C67.1649 43.2335 72 38.3728 72 32.9399C72 27.5059 67.1619 22.6464 59.5488 19.3462C60.4976 11.1019 58.7066 4.47958 54 1.76221C52.497 0.892207 50.7969 0.484863 48.9609 0.484863C45.0531 0.484863 40.5364 2.44617 36 5.81104C31.4633 2.44617 26.9456 0.484863 23.0391 0.484863ZM23.0391 5.73486C25.384 5.73486 28.4849 6.98169 31.8516 9.2915C29.8721 11.1596 27.9335 13.2837 26.0684 15.6489C23.0432 16.0827 20.191 16.715 17.5488 17.5063C17.5346 17.3231 17.501 17.1308 17.4902 16.9497C17.1692 11.6097 18.342 7.62908 20.625 6.30908C21.3 5.91908 22.0881 5.73486 23.0391 5.73486ZM48.9609 5.73486C49.9089 5.73486 50.7 5.91908 51.375 6.30908C53.658 7.62608 54.8308 11.6097 54.5098 16.9497C54.4989 17.1308 54.4654 17.3231 54.4512 17.5063C51.8073 16.7145 48.953 16.0827 45.9258 15.6489C44.0607 13.2841 42.1278 11.1593 40.1484 9.2915C43.5149 6.98207 46.6172 5.73486 48.9609 5.73486ZM36 12.6255C36.8132 13.3657 37.6208 14.148 38.4375 15.0044C37.6282 14.9772 36.8231 14.9399 36 14.9399C35.1789 14.9399 34.3758 14.9773 33.5684 15.0044C34.3843 14.1489 35.1875 13.365 36 12.6255ZM36 20.1899C38.4861 20.1899 40.8424 20.3289 43.0781 20.5708C44.4416 22.424 45.7853 24.3834 47.0449 26.5649C48.2522 28.656 49.3198 30.7964 50.2617 32.9399C49.3197 35.0848 48.2529 37.2284 47.0449 39.3208C45.7892 41.4961 44.4488 43.4428 43.0898 45.2915C40.7751 45.5448 38.4007 45.6899 36 45.6899C33.5139 45.6899 31.1576 45.551 28.9219 45.3091C27.5584 43.4558 26.2147 41.5024 24.9551 39.3208C23.7471 37.2284 22.6806 35.0848 21.7383 32.9399C22.6799 30.7964 23.7478 28.656 24.9551 26.5649C26.2113 24.3897 27.5508 22.4371 28.9102 20.5884C31.2249 20.3351 33.5993 20.1899 36 20.1899ZM50.2383 21.813C51.4285 22.1004 52.5728 22.4106 53.6484 22.7563C53.4047 23.8575 53.1067 24.9798 52.7695 26.1138C52.3835 25.3894 52.0091 24.6627 51.5918 23.9399C51.1624 23.1965 50.6857 22.5286 50.2383 21.813ZM21.7559 21.8188C21.3099 22.5323 20.8362 23.1989 20.4082 23.9399C19.991 24.6628 19.6164 25.3893 19.2305 26.1138C18.8925 24.9774 18.5896 23.8538 18.3457 22.7505C19.4411 22.4044 20.5825 22.0979 21.7559 21.8188ZM13.4062 24.6782C14.0383 27.3471 14.9152 30.1137 16.043 32.9341C14.9176 35.7478 14.0444 38.5093 13.4121 41.1724C8.1877 38.6495 5.25 35.5091 5.25 32.9399C5.25 30.3029 8.10563 27.2977 12.8906 24.9067C13.054 24.825 13.2394 24.758 13.4062 24.6782ZM58.5879 24.7075C63.8123 27.2303 66.75 30.3708 66.75 32.9399C66.75 35.5769 63.8944 38.5821 59.1094 40.9731C58.946 41.0548 58.7606 41.1219 58.5938 41.2017C57.9613 38.5312 57.0916 35.762 55.9629 32.9399C57.0869 30.1287 57.9561 27.3684 58.5879 24.7075ZM36 26.9399C32.685 26.9399 30 29.6249 30 32.9399C30 36.2549 32.685 38.9399 36 38.9399C39.315 38.9399 42 36.2549 42 32.9399C42 29.6249 39.315 26.9399 36 26.9399ZM19.2305 39.7661C19.6166 40.4908 19.9966 41.217 20.4141 41.9399C20.843 42.6828 21.3147 43.3518 21.7617 44.0669C20.5715 43.7795 19.4272 43.4693 18.3516 43.1235C18.5954 42.0217 18.893 40.9008 19.2305 39.7661ZM52.7695 39.772C53.1071 40.9072 53.4105 42.0271 53.6543 43.1294C52.5589 43.4755 51.4175 43.782 50.2441 44.061C50.6901 43.3476 51.1638 42.681 51.5918 41.9399C52.0081 41.2186 52.3843 40.495 52.7695 39.772ZM17.5488 48.3735C20.1927 49.1654 23.047 49.7972 26.0742 50.231C27.9399 52.597 29.8713 54.7257 31.8516 56.5942C28.4851 58.9034 25.3838 60.1509 23.0391 60.1509C22.0911 60.1509 21.3 59.9608 20.625 59.5708C18.342 58.2538 17.1692 54.276 17.4902 48.936C17.5012 48.753 17.5344 48.5587 17.5488 48.3735ZM54.4512 48.3735C54.4655 48.5587 54.4989 48.753 54.5098 48.936C54.8308 54.276 53.658 58.2508 51.375 59.5708C50.7 59.9608 49.9119 60.1509 48.9609 60.1509C46.6162 60.1509 43.5149 58.9038 40.1484 56.5942C42.1289 54.7255 44.0656 52.5973 45.9316 50.231C48.9568 49.7972 51.809 49.1649 54.4512 48.3735ZM33.5625 50.8755C34.3718 50.9027 35.1769 50.9399 36 50.9399C36.8231 50.9399 37.6282 50.9027 38.4375 50.8755C37.6208 51.7318 36.8132 52.5142 36 53.2544C35.1868 52.5142 34.3792 51.7318 33.5625 50.8755Z" fill="#FFF"/>
</svg>
