<svg width="62" height="61" viewBox="0 0 62 61" fill="none" xmlns="http://www.w3.org/2000/svg">
<path d="M60.7096 29.5865L37.002 58.8548C36.0142 59.9698 34.6031 60.6666 33.1919 60.6666C32.6274 60.6666 32.063 60.5273 31.4985 60.3879C29.3818 59.691 28.1117 57.8792 28.1117 55.7886V41.1544H5.6742C3.55745 41.1544 1.58182 39.9001 0.594004 37.9489C-0.393811 35.9976 -0.111578 33.6283 1.15847 31.8165L23.7371 2.54816C25.0071 0.875686 27.1239 0.318194 29.0995 0.875685C31.0752 1.71192 32.3452 3.52377 32.3452 5.61436V20.2485H56.0528C58.3106 20.2485 60.4274 21.5029 61.4152 23.4541C62.403 25.5447 62.1208 27.7746 60.7096 29.5865Z" fill="#FFF"/>
</svg>
