<svg width="63" height="58" viewBox="0 0 63 58" fill="none" xmlns="http://www.w3.org/2000/svg">
<path d="M61.0967 4.45636L49.6629 0.544798C48.9046 0.28483 48.0573 0.422036 47.4195 0.91068L21.6441 20.6731L8.60476 12.7994C7.93558 12.3926 7.11235 12.3372 6.39503 12.6526L1.58081 14.7588C0.704618 15.1415 0.138947 16.0081 0.138947 16.9637V41.0348C0.138947 41.9905 0.704618 42.857 1.58081 43.2398L6.39503 45.346C7.10994 45.6613 7.93318 45.6035 8.60476 45.1991L21.6417 37.3255L47.417 57.0879C47.8431 57.4152 48.3606 57.5837 48.8806 57.5837C49.1429 57.5837 49.4053 57.5404 49.6605 57.4538L61.0943 53.5422C62.0691 53.21 62.7239 52.2953 62.7239 51.2651V6.73349C62.7239 5.70324 62.0691 4.78854 61.0967 4.45636ZM9.7674 33.2502V24.7483L16.8034 28.9993L9.7674 33.2502ZM48.2812 40.3536L31.5229 28.9993L48.2812 17.6449V40.3536Z" fill="#FFF"/>
</svg>
