<svg width="40" height="40" viewBox="0 0 40 40" fill="none" xmlns="http://www.w3.org/2000/svg">
<path d="M36 0H3.6C1.611 0 0 1.611 0 3.6V36C0 37.989 1.611 39.6 3.6 39.6H36C37.989 39.6 39.6 37.989 39.6 36V3.6C39.6 1.611 37.989 0 36 0ZM12.5172 32.4H7.2072V15.3144H12.5172V32.4ZM9.8082 12.8718C8.0964 12.8718 6.7122 11.484 6.7122 9.7758C6.7122 8.0676 8.0982 6.6816 9.8082 6.6816C11.5146 6.6816 12.9024 8.0694 12.9024 9.7758C12.9024 11.484 11.5146 12.8718 9.8082 12.8718ZM32.4072 32.4H27.1008V24.0912C27.1008 22.1094 27.0648 19.5606 24.3414 19.5606C21.5784 19.5606 21.1536 21.7188 21.1536 23.9472V32.4H15.8472V15.3144H20.9412V17.649H21.0132C21.7224 16.3062 23.454 14.8896 26.037 14.8896C31.4136 14.8896 32.4072 18.4284 32.4072 23.0292V32.4Z" fill="#175073"/>
</svg>
